<svg width="20" height="20" viewBox="0 0 20 20" fill="none" xmlns="http://www.w3.org/2000/svg">
<path fill-rule="evenodd" clip-rule="evenodd" d="M17.5 10C17.5 14.1421 14.1421 17.5 10 17.5C5.85786 17.5 2.5 14.1421 2.5 10C2.5 5.85786 5.85786 2.5 10 2.5C14.1421 2.5 17.5 5.85786 17.5 10ZM10 15.1667C9.44772 15.1667 9 14.719 9 14.1667V11H5.83333C5.28105 11 4.83333 10.5523 4.83333 10C4.83333 9.44772 5.28105 9 5.83333 9H9V5.83333C9 5.28105 9.44772 4.83333 10 4.83333C10.5523 4.83333 11 5.28105 11 5.83333V9H14.1667C14.719 9 15.1667 9.44772 15.1667 10C15.1667 10.5523 14.719 11 14.1667 11H11V14.1667C11 14.719 10.5523 15.1667 10 15.1667Z" fill="white"/>
</svg>
