<svg width="24" height="24" viewBox="0 0 24 24" fill="none" xmlns="http://www.w3.org/2000/svg">
<path d="M5.33328 8.66669C5.33328 4.98478 8.31806 2 12 2C15.6819 2 18.6667 4.98478 18.6667 8.66669V10.9077C18.6667 11.1529 18.6667 11.2755 18.6703 11.3961C18.7084 12.6585 19.0448 13.8939 19.652 15.0012C19.71 15.107 19.7722 15.2127 19.8965 15.4241L20.5159 16.477C21.0394 17.3669 21.3011 17.8119 21.236 18.1761C21.1953 18.4031 21.0775 18.6091 20.9025 18.7592C20.6216 19 20.1053 19 19.0728 19H4.92718C3.89466 19 3.3784 19 3.09751 18.7592C2.92245 18.6091 2.80465 18.4031 2.76403 18.1761C2.69887 17.8119 2.96062 17.3669 3.48412 16.4769L4.10346 15.4241C4.22779 15.2127 4.28996 15.107 4.34798 15.0012C4.95515 13.8938 5.29155 12.6585 5.32964 11.3962C5.33328 11.2756 5.33328 11.153 5.33328 10.9077V8.66669Z" fill="#6A6A6A"/>
<path d="M14.85 20C14.9328 20 15.0009 20.0674 14.9916 20.1497C14.9381 20.6254 14.6308 21.0746 14.1213 21.4142C13.5587 21.7893 12.7956 22 12 22C11.2044 22 10.4413 21.7893 9.87868 21.4142C9.36923 21.0746 9.06194 20.6254 9.00841 20.1497C8.99914 20.0674 9.06716 20 9.15 20L12 20L14.85 20Z" fill="#6A6A6A"/>
</svg>
