<svg width="100" height="100" viewBox="0 0 100 100" fill="none" xmlns="http://www.w3.org/2000/svg">
<g clip-path="url(#clip0_63_197)">
<path d="M5 92.5347C5.75146 91.0801 7.14233 91.2822 8.51562 91.3174C8.51562 90.8801 8.51562 90.5373 8.51562 90.1946C8.51562 80.0498 8.51562 69.9028 8.51562 59.7581C8.51562 57.8047 9.05615 57.2729 11.0359 57.2707C22.2551 57.2707 33.4744 57.2707 44.6958 57.2707C46.6536 57.2707 47.1875 57.8091 47.1875 59.7844C47.1875 69.9006 47.1875 80.0168 47.1875 90.133C47.1875 90.4824 47.1875 90.8296 47.1875 91.2427C50.167 91.2427 53.1047 91.2427 56.0952 91.2427C56.0952 90.1352 56.0952 89.0366 56.0952 87.793C55.8074 87.793 55.502 87.793 55.1943 87.793C53.553 87.793 51.9138 87.8083 50.2725 87.7864C49.0706 87.7688 48.262 87.0283 48.2729 86.0198C48.2839 85.009 49.0925 84.2993 50.301 84.2883C52.2039 84.2729 54.1045 84.2839 56.0754 84.2839C56.0754 82.1877 56.0754 80.1333 56.0754 77.969C54.478 77.969 52.8762 77.969 51.2766 77.969C50.8965 77.969 50.5142 77.9866 50.134 77.9624C49.0442 77.8965 48.2905 77.1868 48.2729 76.2331C48.2554 75.2532 49.0464 74.4863 50.1736 74.4665C51.8127 74.4402 53.4541 74.4578 55.0955 74.4578C55.4119 74.4578 55.7261 74.4578 56.093 74.4578C56.093 72.3484 56.093 70.3137 56.093 68.1428C55.6228 68.1428 55.1394 68.1428 54.656 68.1428C53.2783 68.1428 51.9028 68.1472 50.5251 68.1406C49.1167 68.134 48.2532 67.4463 48.2729 66.3564C48.2927 65.293 49.1277 64.6382 50.4878 64.6338C52.3313 64.6272 54.1726 64.6316 56.0798 64.6316C56.0798 62.5288 56.0798 60.4722 56.0798 58.3166C54.2935 58.3166 52.5159 58.3166 50.7383 58.3166C49.1519 58.3166 48.2839 57.7014 48.2729 56.572C48.262 55.4404 49.1321 54.8098 50.7119 54.8098C52.4917 54.8076 54.2715 54.8098 56.0974 54.8098C56.0974 52.6916 56.0974 50.657 56.0974 48.4949C54.9702 48.4949 53.8408 48.4949 52.7114 48.4949C51.9204 48.4949 51.1294 48.5059 50.3384 48.4927C49.0793 48.4685 48.2444 47.7368 48.2729 46.6997C48.2993 45.6868 49.1035 44.999 50.323 44.9902C52.2236 44.977 54.1243 44.9858 56.0842 44.9858C56.0842 42.8743 56.0842 40.8198 56.0842 38.6709C54.8713 38.6709 53.6782 38.6709 52.4873 38.6709C51.8435 38.6709 51.1975 38.6731 50.5537 38.6709C49.1321 38.6643 48.2773 38.0029 48.2729 36.9153C48.2708 35.8276 49.1233 35.1663 50.5471 35.1641C52.384 35.1597 54.2209 35.1641 56.1018 35.1641C56.1018 32.8042 56.1018 30.5366 56.1018 28.2119C48.1697 28.2119 40.2507 28.2119 32.2395 28.2119C32.2395 28.5459 32.2395 28.8579 32.2395 29.1721C32.2395 33.9973 32.2395 38.8203 32.2395 43.6455C32.2395 43.8498 32.2439 44.0542 32.2395 44.2585C32.2109 45.5286 31.5122 46.3437 30.4619 46.335C29.4116 46.3262 28.7283 45.5176 28.7283 44.23C28.7217 38.4116 28.7217 32.5933 28.7283 26.7749C28.7305 25.2939 29.3875 24.6501 30.8926 24.6479C36.311 24.6414 41.7317 24.6457 47.1501 24.6457C47.4709 24.6457 47.7917 24.6457 48.2532 24.6457C48.2532 24.2766 48.2532 23.9426 48.2532 23.6064C48.2532 18.1396 48.2576 12.6706 48.2488 7.20385C48.2466 6.32495 48.4487 5.58447 49.3101 5.16699C50.0374 4.81542 50.6658 5.10327 51.303 5.43945C56.2644 8.06958 61.228 10.6931 66.1895 13.321C70.7378 15.7292 75.2751 18.1594 79.8411 20.5369C80.876 21.0752 81.3242 21.7783 81.3176 22.9582C81.2825 29.917 81.3 36.8757 81.3 43.8345C81.3 44.1794 81.3 44.5266 81.3 44.9902C82.1438 44.9902 82.9216 44.9902 83.7017 44.9902C85.5188 44.9902 87.3337 44.988 89.1509 44.9902C90.8823 44.9924 91.4822 45.5857 91.4822 47.3083C91.4844 61.606 91.4822 75.9014 91.4822 90.199C91.4822 90.5417 91.4822 90.8845 91.4822 91.2954C92.8445 91.3196 94.2529 91.0669 94.9978 92.5413C94.9978 93.3015 94.9978 94.0618 94.9978 94.822C64.9985 94.822 34.9971 94.822 4.9978 94.822C5 94.0552 5 93.2949 5 92.5347ZM51.7886 24.5249C51.9182 24.5798 51.9688 24.6194 52.0193 24.6194C53.6892 24.6282 55.3569 24.6348 57.0269 24.637C59.1692 24.6392 59.6636 25.1313 59.6636 27.2759C59.6636 48.2334 59.6636 69.1909 59.6636 90.1462C59.6636 90.5132 59.6636 90.8823 59.6636 91.2361C61.6653 91.2361 63.5505 91.2361 65.4688 91.2361C65.4688 90.8208 65.4688 90.4714 65.4688 90.1221C65.4688 75.9167 65.4688 61.7114 65.4688 47.5061C65.4688 45.4868 65.9829 44.9814 68.0308 44.9814C70.9597 44.9814 73.8887 44.9814 76.8176 44.9814C77.1252 44.9814 77.4351 44.9814 77.7493 44.9814C77.7668 44.7068 77.7844 44.5618 77.7844 44.4167C77.7866 37.636 77.7756 30.8552 77.802 24.0745C77.8042 23.4812 77.5164 23.2747 77.0791 23.0439C68.936 18.7417 60.7996 14.4285 52.6609 10.1218C52.3972 9.98339 52.1226 9.86694 51.7908 9.71093C51.7886 14.7339 51.7886 19.6118 51.7886 24.5249ZM87.9292 48.5652C81.5681 48.5652 75.2905 48.5652 69.0305 48.5652C69.0305 62.8342 69.0305 77.0308 69.0305 91.2493C75.3564 91.2493 81.634 91.2493 87.9006 91.2493C87.9006 90.0693 87.9006 88.9487 87.9006 87.793C87.6304 87.793 87.4282 87.793 87.2239 87.793C85.7297 87.7908 84.2356 87.8193 82.7415 87.7798C81.6274 87.749 80.9199 87.0371 80.9111 86.0527C80.9024 85.0574 81.6077 84.3498 82.7041 84.2927C83.2886 84.262 83.8753 84.2839 84.4619 84.2839C85.6199 84.2839 86.7778 84.2839 87.916 84.2839C87.916 82.1108 87.916 80.0762 87.916 77.969C87.582 77.969 87.2942 77.969 87.0063 77.969C84.429 77.969 81.8516 77.969 79.2742 77.969C79.0391 77.969 78.804 77.98 78.571 77.9624C77.4856 77.8855 76.7363 77.1714 76.7297 76.2178C76.7232 75.229 77.5032 74.4775 78.6414 74.4687C81.4231 74.4468 84.207 74.4622 86.9888 74.46C87.2986 74.46 87.6062 74.46 87.9204 74.46C87.9204 72.3 87.9204 70.2654 87.9204 68.145C87.593 68.145 87.3096 68.145 87.0239 68.145C84.4465 68.145 81.8691 68.145 79.2917 68.145C79.0566 68.145 78.8215 68.1538 78.5886 68.1406C77.4988 68.0703 76.7473 67.3694 76.7275 66.4136C76.7078 65.4248 77.4878 64.6558 78.6216 64.6448C81.4033 64.6206 84.1873 64.636 86.969 64.636C87.2788 64.636 87.5908 64.636 87.8962 64.636C87.8962 62.4673 87.8962 60.4128 87.8962 58.321C84.8135 58.321 81.7988 58.3298 78.782 58.3166C77.5274 58.3101 76.6968 57.5608 76.7253 56.5215C76.7539 55.5041 77.5515 54.823 78.7754 54.8164C81.177 54.8032 83.5786 54.812 85.9802 54.812C86.6152 54.812 87.2503 54.812 87.9226 54.812C87.9292 52.6763 87.9292 50.6416 87.9292 48.5652ZM12.0686 91.2427C22.6374 91.2427 33.1316 91.2427 43.5994 91.2427C43.5994 81.0561 43.5994 70.9312 43.5994 60.8281C33.0547 60.8281 22.5803 60.8281 12.0686 60.8281C12.0686 70.9773 12.0686 81.0803 12.0686 91.2427Z" fill="url(#paint0_linear_63_197)"/>
<path d="M32.2264 51.5579C32.233 52.4851 31.4353 53.2783 30.4861 53.2849C29.5325 53.2915 28.7415 52.5203 28.7349 51.5799C28.7283 50.6394 29.5149 49.8572 30.4664 49.8528C31.4156 49.8484 32.2198 50.6284 32.2264 51.5579Z" fill="url(#paint1_linear_63_197)"/>
<path d="M63.7197 38.7061C63.7219 38.0952 63.6824 37.48 63.7307 36.8714C63.8098 35.8562 64.5701 35.1553 65.4995 35.1729C66.3982 35.1904 67.154 35.8672 67.2002 36.8428C67.2595 38.093 67.2617 39.3499 67.2002 40.5979C67.1518 41.5823 66.4048 42.2305 65.4841 42.2371C64.5305 42.2437 63.8076 41.5713 63.7285 40.5386C63.6824 39.9321 63.7197 39.3191 63.7197 38.7061Z" fill="url(#paint2_linear_63_197)"/>
<path d="M70.7465 38.717C70.7465 38.1348 70.7202 37.5503 70.7531 36.9702C70.8147 35.8979 71.5573 35.1619 72.5197 35.1729C73.4492 35.1838 74.2006 35.8958 74.2424 36.9197C74.2907 38.1128 74.2907 39.3103 74.2424 40.5012C74.2006 41.5427 73.4777 42.2261 72.5263 42.2393C71.5376 42.2524 70.8169 41.5515 70.7531 40.4639C70.718 39.8838 70.7465 39.2993 70.7465 38.717Z" fill="url(#paint3_linear_63_197)"/>
<path d="M67.2222 28.2075C67.2222 28.7327 67.2486 29.26 67.2178 29.7829C67.1519 30.864 66.418 31.5913 65.4468 31.5759C64.4998 31.5605 63.7747 30.8684 63.7286 29.8247C63.6802 28.748 63.6824 27.6648 63.7286 26.5881C63.7725 25.5642 64.5218 24.8435 65.449 24.8303C66.4048 24.8149 67.1541 25.5642 67.2178 26.6343C67.2486 27.155 67.2222 27.6824 67.2222 28.2075Z" fill="url(#paint4_linear_63_197)"/>
<path d="M74.2535 28.2009C74.2535 28.7261 74.2798 29.2534 74.2491 29.7764C74.1854 30.8596 73.4559 31.5869 72.4825 31.5737C71.5355 31.5627 70.806 30.8706 70.7598 29.8291C70.7115 28.7524 70.7137 27.6692 70.7576 26.5925C70.8016 25.5686 71.5464 24.8457 72.4737 24.8303C73.4295 24.8127 74.1832 25.5598 74.2469 26.6277C74.2798 27.1506 74.2535 27.6758 74.2535 28.2009Z" fill="url(#paint5_linear_63_197)"/>
<path d="M76.3914 86.0044C76.4046 86.947 75.6268 87.76 74.6973 87.7776C73.7789 87.7952 72.9527 86.9888 72.9351 86.0593C72.9175 85.1299 73.7085 84.3125 74.6424 84.2949C75.574 84.2773 76.3782 85.0639 76.3914 86.0044Z" fill="url(#paint6_linear_63_197)"/>
<path d="M25.7708 69.3183C25.7708 70.3115 25.7883 71.3069 25.7664 72.3C25.7378 73.5239 25.1028 74.2182 23.8701 74.2468C21.8201 74.293 19.7678 74.293 17.7178 74.2468C16.5225 74.2204 15.8589 73.5657 15.8325 72.3791C15.7864 70.3049 15.7842 68.2263 15.8347 66.1521C15.8655 64.9238 16.5576 64.3086 17.8145 64.2954C19.8074 64.2734 21.7981 64.2712 23.791 64.2954C25.0786 64.3108 25.7378 64.9765 25.7664 66.2466C25.7883 67.2727 25.7708 68.2944 25.7708 69.3183ZM22.2068 67.8528C21.2422 67.8528 20.3259 67.8528 19.3855 67.8528C19.3855 68.8218 19.3855 69.738 19.3855 70.696C20.3567 70.696 21.2708 70.696 22.2068 70.696C22.2068 69.7182 22.2068 68.802 22.2068 67.8528Z" fill="url(#paint7_linear_63_197)"/>
<path d="M25.7685 82.7634C25.7663 83.8159 25.7905 84.8684 25.7619 85.9209C25.7312 87.0503 25.0896 87.749 23.9624 87.7732C21.853 87.8171 19.7436 87.8149 17.6343 87.7732C16.5378 87.7512 15.8698 87.1074 15.8435 86.0066C15.7907 83.873 15.7885 81.7373 15.8435 79.6059C15.872 78.4853 16.5642 77.8525 17.7221 77.8305C19.7722 77.791 21.8244 77.7888 23.8745 77.8305C25.1006 77.8569 25.74 78.5534 25.7663 79.7795C25.7883 80.7749 25.7707 81.7702 25.7685 82.7634ZM22.2243 81.4033C21.2158 81.4033 20.3039 81.4033 19.3987 81.4033C19.3987 82.3943 19.3987 83.3061 19.3987 84.2158C20.3852 84.2158 21.3015 84.2158 22.2243 84.2158C22.2243 83.249 22.2243 82.3503 22.2243 81.4033Z" fill="url(#paint8_linear_63_197)"/>
<path d="M30.1324 82.7656C30.1324 81.7724 30.1126 80.7771 30.1368 79.7839C30.1653 78.5644 30.8179 77.8569 32.0396 77.8305C34.0896 77.7866 36.1419 77.7888 38.1919 77.8305C39.3763 77.8547 40.064 78.5051 40.0948 79.6916C40.1497 81.7658 40.1497 83.8445 40.0948 85.9187C40.0618 87.1426 39.3499 87.7688 38.1084 87.7842C36.1155 87.8083 34.1248 87.8083 32.1319 87.7842C30.8201 87.7688 30.1565 87.0744 30.1346 85.7495C30.117 84.7541 30.1324 83.761 30.1324 82.7656ZM36.5396 84.251C36.5396 83.2358 36.5396 82.3218 36.5396 81.3769C35.5618 81.3769 34.6456 81.3769 33.7139 81.3769C33.7139 82.3657 33.7139 83.3039 33.7139 84.251C34.6807 84.251 35.5772 84.251 36.5396 84.251Z" fill="url(#paint9_linear_63_197)"/>
<path d="M30.1323 69.281C30.1323 68.2878 30.1169 67.2925 30.1367 66.2993C30.1609 65.0183 30.8178 64.3174 32.0747 64.2998C34.0962 64.2712 36.1176 64.2734 38.1391 64.2998C39.374 64.3152 40.0661 64.9546 40.0991 66.1916C40.1518 68.2373 40.1496 70.2851 40.1013 72.3308C40.0727 73.5591 39.3916 74.2248 38.1611 74.2512C36.1396 74.2929 34.1181 74.2929 32.0966 74.2534C30.7915 74.227 30.1521 73.5129 30.1345 72.177C30.1213 71.2124 30.1301 70.2456 30.1323 69.281ZM36.5417 70.718C36.5417 69.6985 36.5417 68.7844 36.5417 67.8462C35.5639 67.8462 34.6455 67.8462 33.7182 67.8462C33.7182 68.8305 33.7182 69.7666 33.7182 70.718C34.6828 70.718 35.5771 70.718 36.5417 70.718Z" fill="url(#paint10_linear_63_197)"/>
</g>
<defs>
<linearGradient id="paint0_linear_63_197" x1="11.7478" y1="90.7803" x2="89.4326" y2="10.2361" gradientUnits="userSpaceOnUse">
<stop stop-color="#956AEA"/>
<stop offset="1" stop-color="#56D6E5"/>
</linearGradient>
<linearGradient id="paint1_linear_63_197" x1="28.9967" y1="53.1305" x2="31.9634" y2="50.0079" gradientUnits="userSpaceOnUse">
<stop stop-color="#956AEA"/>
<stop offset="1" stop-color="#56D6E5"/>
</linearGradient>
<linearGradient id="paint2_linear_63_197" x1="63.9709" y1="41.9192" x2="68.968" y2="39.3283" gradientUnits="userSpaceOnUse">
<stop stop-color="#956AEA"/>
<stop offset="1" stop-color="#56D6E5"/>
</linearGradient>
<linearGradient id="paint3_linear_63_197" x1="71.0013" y1="41.9214" x2="76.0015" y2="39.3276" gradientUnits="userSpaceOnUse">
<stop stop-color="#956AEA"/>
<stop offset="1" stop-color="#56D6E5"/>
</linearGradient>
<linearGradient id="paint4_linear_63_197" x1="63.9586" y1="31.2726" x2="68.855" y2="28.6144" gradientUnits="userSpaceOnUse">
<stop stop-color="#956AEA"/>
<stop offset="1" stop-color="#56D6E5"/>
</linearGradient>
<linearGradient id="paint5_linear_63_197" x1="70.9896" y1="31.2704" x2="75.8855" y2="28.6114" gradientUnits="userSpaceOnUse">
<stop stop-color="#956AEA"/>
<stop offset="1" stop-color="#56D6E5"/>
</linearGradient>
<linearGradient id="paint6_linear_63_197" x1="73.1941" y1="87.6211" x2="76.2078" y2="84.5266" gradientUnits="userSpaceOnUse">
<stop stop-color="#956AEA"/>
<stop offset="1" stop-color="#56D6E5"/>
</linearGradient>
<linearGradient id="paint7_linear_63_197" x1="16.5459" y1="73.8313" x2="25.1994" y2="64.8984" gradientUnits="userSpaceOnUse">
<stop stop-color="#956AEA"/>
<stop offset="1" stop-color="#56D6E5"/>
</linearGradient>
<linearGradient id="paint8_linear_63_197" x1="16.5512" y1="87.3551" x2="25.2066" y2="78.4273" gradientUnits="userSpaceOnUse">
<stop stop-color="#956AEA"/>
<stop offset="1" stop-color="#56D6E5"/>
</linearGradient>
<linearGradient id="paint9_linear_63_197" x1="30.8756" y1="87.3521" x2="39.5287" y2="78.3923" gradientUnits="userSpaceOnUse">
<stop stop-color="#956AEA"/>
<stop offset="1" stop-color="#56D6E5"/>
</linearGradient>
<linearGradient id="paint10_linear_63_197" x1="30.8774" y1="73.8326" x2="39.5303" y2="64.8726" gradientUnits="userSpaceOnUse">
<stop stop-color="#956AEA"/>
<stop offset="1" stop-color="#56D6E5"/>
</linearGradient>
<clipPath id="clip0_63_197">
<rect width="90" height="89.8154" fill="white" transform="translate(5 5)"/>
</clipPath>
</defs>
</svg>
