<svg width="100" height="100" viewBox="0 0 100 100" fill="none" xmlns="http://www.w3.org/2000/svg">
<g clip-path="url(#clip0_118_2583)">
<path d="M14.67 5C33.24 5 51.82 5 70.39 5C73.14 5.9 74.16 7.87 74.03 10.67C73.93 12.8 73.98 14.95 74.04 17.08C74.05 17.54 74.29 18.09 74.61 18.43C75.89 19.8 77.23 21.11 78.57 22.43C79.44 23.29 79.97 24.32 80 25.55C80.03 26.92 80.03 28.3 79.92 29.67C79.77 31.56 78.88 33.1 77.59 34.47C77.29 34.79 77.05 35.31 77.05 35.73C77.01 39.19 77.02 42.64 77.03 46.1C77.03 46.38 77.06 46.66 77.09 47C77.48 47 77.8 47 78.11 47C82.15 47 86.2 47 90.24 47C93.4 47 95.02 48.6 95.02 51.74C95.02 64.57 95.02 77.4 95.02 90.23C95.02 93.38 93.41 94.99 90.27 94.99C77.44 94.99 64.61 94.99 51.78 94.99C51.55 94.99 51.31 94.99 51.08 94.99C48.84 94.91 47.09 93.17 47.05 90.93C47.02 89.08 47.04 87.24 47.04 85.39C47.04 85.11 47.01 84.83 46.99 84.48C46.57 84.48 46.23 84.48 45.88 84.48C35.98 84.48 26.08 84.48 16.17 84.47C15.5 84.47 14.81 84.47 14.16 84.34C10.41 83.63 8 80.6 8 76.67C7.99 63.05 8 49.43 7.99 35.81C7.99 35.45 7.98 34.95 7.76 34.76C6.23 33.42 5.44 31.71 5 29.79C5 28.15 5 26.51 5 24.87C5.4 23.54 6.28 22.55 7.26 21.61C8.36 20.56 9.44 19.49 10.47 18.38C10.75 18.08 10.95 17.59 10.96 17.18C11.02 15.81 10.98 14.43 10.98 13.06C10.98 12.21 10.98 11.36 10.98 10.52C10.99 7.32 11.74 6.2 14.67 5ZM71 50C64.59 50 58.17 50 51.76 50C50.32 50 50 50.31 50 51.73C50 64.59 50 77.44 50 90.3C50 91.66 50.34 92 51.71 92C64.57 92 77.42 92 90.28 92C91.66 92 92 91.66 92 90.31C92 77.42 92 64.54 92 51.65C92 50.35 91.64 50 90.33 50C83.89 50 77.45 50 71 50ZM46.98 69.06C40.26 78.68 27.17 79.44 19.45 71.9C12.05 64.68 12.21 52.82 19.81 45.78C27.89 38.29 41.16 39.71 47.33 49.48C48.35 47.47 50.06 46.96 52.16 46.98C59.07 47.04 65.99 47 72.9 47C73.24 47 73.58 47 73.94 47C73.94 43.4 73.94 39.91 73.94 36.37C70.87 36.82 68.4 35.84 66.48 33.5C63.65 37.09 58.21 37.82 54.46 33.58C52.91 35.43 50.95 36.47 48.51 36.47C46.05 36.48 44.09 35.4 42.49 33.53C40.88 35.44 38.92 36.47 36.48 36.47C34.05 36.46 32.1 35.41 30.5 33.53C28.9 35.42 26.95 36.46 24.51 36.47C22.04 36.48 20.09 35.39 18.5 33.54C16.49 35.89 14.04 36.82 10.99 36.35C10.99 36.69 10.99 36.98 10.99 37.27C10.99 50.36 10.99 63.46 10.99 76.55C10.99 79.63 12.83 81.47 15.9 81.48C25.95 81.48 35.99 81.48 46.04 81.48C46.35 81.48 46.65 81.48 46.98 81.48C46.98 77.31 46.98 73.27 46.98 69.06ZM32.01 74C40.31 73.98 47.02 67.24 47 58.94C46.98 50.7 40.24 44 31.98 44.01C23.69 44.02 16.95 50.78 16.99 59.06C17.03 67.3 23.78 74.03 32.01 74ZM70.99 16.95C70.99 14.65 70.99 12.44 70.99 10.22C70.99 8.41 70.58 8 68.78 8C57.62 8 46.47 8 35.31 8C28.87 8 22.43 8 15.98 8C14.49 8 13.99 8.5 13.99 10.01C13.99 11.36 13.99 12.7 13.99 14.05C13.99 15.01 13.99 15.96 13.99 16.95C33.02 16.95 51.93 16.95 70.99 16.95ZM74.88 22.93C73.96 22.04 73.2 21.35 72.51 20.6C72.07 20.13 71.61 19.97 70.97 19.97C61.95 19.99 52.93 19.98 43.92 19.98C33.94 19.98 23.95 19.98 13.97 19.99C13.63 19.99 13.2 19.99 12.98 20.18C12.05 21.01 11.19 21.91 10.15 22.93C31.79 22.93 53.2 22.93 74.88 22.93ZM20.08 26.04C20.08 27.34 19.97 28.54 20.11 29.72C20.34 31.68 21.96 33.19 23.87 33.45C25.82 33.71 27.73 32.7 28.55 30.93C29.28 29.35 28.96 27.69 28.96 26.04C25.93 26.04 23.02 26.04 20.08 26.04ZM68.05 26.05C68.05 27.3 67.96 28.45 68.07 29.57C68.27 31.55 69.79 33.09 71.71 33.44C73.55 33.77 75.48 32.81 76.42 31.09C77.29 29.48 76.98 27.76 76.96 26.05C73.94 26.05 71.02 26.05 68.05 26.05ZM44.02 26.05C44.02 27.12 44 28.14 44.02 29.16C44.08 31.35 45.76 33.2 47.91 33.46C50.18 33.74 52.35 32.37 52.8 30.15C53.07 28.83 52.98 27.45 53.06 26.05C49.96 26.05 47.02 26.05 44.02 26.05ZM40.91 26.05C37.98 26.05 35.05 26.05 32.03 26.05C32.03 27.15 31.99 28.2 32.04 29.24C32.14 31.49 33.9 33.31 36.07 33.48C38.44 33.66 40.53 32.16 40.88 29.83C41.05 28.63 40.91 27.39 40.91 26.05ZM16.88 26.05C13.95 26.05 11.01 26.05 8.02 26.05C8.02 27.18 7.94 28.27 8.04 29.34C8.24 31.57 10.12 33.37 12.24 33.49C14.46 33.61 16.47 32.2 16.85 30.01C17.06 28.73 16.88 27.4 16.88 26.05ZM55.99 26.05C55.99 27.1 55.96 28.09 56 29.08C56.08 31.37 57.83 33.27 60.01 33.47C62.29 33.68 64.5 32.11 64.86 29.82C65.05 28.6 64.89 27.33 64.89 26.05C61.94 26.05 59 26.05 55.99 26.05Z" fill="url(#paint0_linear_118_2583)"/>
<path d="M78.49 84.45C80.04 84.45 81.47 84.45 83.01 84.45C83.01 84.07 83.01 83.73 83.01 83.39C83.01 78.5 83.01 73.61 83.01 68.72C83.01 68.43 83 68.13 83.03 67.84C83.13 67.07 83.58 66.62 84.34 66.54C85.1 66.46 85.65 66.82 85.89 67.55C85.99 67.87 86 68.24 86 68.59C86.01 73.54 86 78.49 86 83.44C86 83.76 86 84.07 86 84.49C86.48 84.49 86.88 84.48 87.28 84.49C88.31 84.53 88.99 85.13 88.99 85.99C88.99 86.87 88.33 87.48 87.29 87.47C86.57 87.46 86.06 87.49 85.66 88.33C85.17 89.38 83.59 89.2 83.15 88.08C82.94 87.54 82.66 87.47 82.18 87.48C80.98 87.5 79.78 87.49 78.56 87.49C78.34 88.36 77.9 89 76.96 88.99C76.06 88.98 75.64 88.35 75.41 87.49C74.1 87.49 72.78 87.47 71.47 87.51C71.27 87.52 71.01 87.79 70.91 88C70.61 88.62 70.16 89 69.49 88.99C68.82 88.99 68.36 88.62 68.07 88C67.96 87.78 67.65 87.52 67.42 87.51C66.16 87.46 64.9 87.49 63.62 87.49C63.52 87.72 63.49 88 63.33 88.13C62.92 88.46 62.46 88.94 62.01 88.95C61.56 88.95 60.92 88.55 60.72 88.15C60.44 87.59 60.14 87.47 59.6 87.49C58.9 87.52 58.19 87.51 57.49 87.49C55.97 87.44 54.92 86.55 54.55 85.08C54.49 84.85 54.3 84.56 54.1 84.47C53.44 84.19 53.02 83.75 53.01 83.02C53.01 82.26 53.44 81.78 54.16 81.55C54.27 81.52 54.37 81.45 54.5 81.38C54.5 80.12 54.52 78.86 54.48 77.6C54.47 77.36 54.23 77.03 54.01 76.93C53.39 76.64 53.01 76.2 53 75.52C52.99 74.8 53.39 74.34 54.06 74.06C54.26 73.98 54.47 73.66 54.48 73.45C54.52 72.19 54.5 70.93 54.5 69.62C53.71 69.33 52.96 68.95 53 67.95C53.04 67.05 53.66 66.64 54.5 66.43C54.5 65.12 54.52 63.83 54.48 62.55C54.47 62.34 54.25 62.04 54.05 61.95C53.4 61.65 52.99 61.2 53 60.48C53.01 59.8 53.39 59.37 54.02 59.07C54.24 58.97 54.43 58.65 54.49 58.39C54.58 58.03 54.5 57.63 54.55 57.25C54.66 56.47 55.18 56.05 55.92 56.01C56.63 55.96 57.18 56.32 57.39 57.02C57.5 57.4 57.51 57.83 57.51 58.23C57.52 66.58 57.51 74.93 57.51 83.27C57.51 83.62 57.51 83.97 57.51 84.4C58.5 84.4 59.44 84.4 60.51 84.4C60.51 83.91 60.51 83.43 60.51 82.94C60.51 81.04 60.5 79.13 60.51 77.23C60.52 76.17 61.08 75.51 61.96 75.5C62.86 75.48 63.49 76.17 63.5 77.26C63.52 79.31 63.5 81.36 63.5 83.41C63.5 83.73 63.5 84.04 63.5 84.42C64.98 84.42 66.4 84.42 67.97 84.42C67.97 84.09 67.97 83.76 67.97 83.42C67.97 79.52 67.97 75.63 67.97 71.73C67.97 71.41 67.96 71.08 68.02 70.77C68.16 69.96 68.79 69.44 69.56 69.51C70.36 69.58 70.84 70.03 70.94 70.84C70.98 71.16 70.97 71.48 70.97 71.8C70.97 75.67 70.97 79.53 70.97 83.4C70.97 83.72 70.97 84.03 70.97 84.41C72.5 84.41 73.94 84.41 75.47 84.41C75.47 83.36 75.47 82.34 75.47 81.32C75.47 78.45 75.46 75.58 75.48 72.71C75.49 71.49 76.34 70.76 77.39 71.07C78.22 71.32 78.48 71.95 78.47 72.76C78.46 76.3 78.47 79.85 78.47 83.39C78.49 83.73 78.49 84.04 78.49 84.45Z" fill="url(#paint1_linear_118_2583)"/>
<path d="M76.75 64.43C78.64 62.54 80.46 60.73 82.28 58.9C82.09 58.65 81.79 58.37 81.63 58.01C81.22 57.09 81.86 56.07 82.92 56C83.97 55.94 85.03 55.95 86.08 56C86.93 56.04 87.44 56.63 87.47 57.52C87.5 58.34 87.46 59.16 87.49 59.98C87.51 60.79 87.41 61.54 86.55 61.87C85.71 62.18 85.07 61.83 84.58 61.04C82.76 62.86 80.98 64.64 79.21 66.41C77.53 68.09 76.22 68.09 74.54 66.42C73.57 65.45 72.59 64.48 71.61 63.51C71.57 63.47 71.51 63.45 71.27 63.22C71.08 63.51 70.92 63.82 70.68 64.07C68.24 66.64 65.81 69.22 63.32 71.75C62.95 72.13 62.32 72.44 61.82 72.43C61.41 72.42 60.88 71.96 60.65 71.56C60.31 70.99 60.53 70.37 61 69.88C62.07 68.76 63.15 67.64 64.22 66.51C65.9 64.75 67.57 62.99 69.26 61.24C70.65 59.8 72.12 59.78 73.54 61.19C74.63 62.28 75.71 63.38 76.75 64.43Z" fill="url(#paint2_linear_118_2583)"/>
<path d="M26.03 64.09C25.98 62.8 26.48 62.12 27.34 62.01C28.2 61.9 28.94 62.5 28.98 63.55C29.06 65.45 30.78 66.74 32.42 66.47C33.95 66.23 35.07 64.87 34.99 63.39C34.91 61.82 33.72 60.61 32.1 60.53C29.76 60.42 27.92 59.48 26.75 57.41C24.98 54.26 26.41 50.31 29.79 48.96C30.18 48.8 30.46 48.67 30.55 48.17C30.69 47.44 31.23 47.01 32.01 47.03C32.78 47.05 33.21 47.5 33.47 48.21C33.57 48.48 33.82 48.79 34.07 48.9C36.4 49.87 37.68 51.6 37.97 54.09C38.09 55.1 37.56 55.87 36.71 55.99C35.79 56.12 35.15 55.54 35 54.44C34.71 52.27 32.92 51.03 31.02 51.68C29.76 52.11 28.95 53.31 29.02 54.67C29.08 56.02 30 57.14 31.32 57.41C32 57.55 32.72 57.54 33.4 57.7C36.03 58.33 37.82 60.51 37.99 63.24C38.15 65.69 36.6 68.08 34.23 69.04C33.82 69.21 33.49 69.32 33.41 69.89C33.31 70.59 32.75 70.98 32.01 70.98C31.28 70.98 30.71 70.63 30.59 69.92C30.49 69.33 30.14 69.2 29.7 69.01C27.43 68.01 26.24 66.23 26.03 64.09Z" fill="url(#paint3_linear_118_2583)"/>
<path d="M42.49 13.99C41.53 13.99 40.56 14.01 39.6 13.99C38.62 13.97 38.02 13.38 38.02 12.5C38.03 11.63 38.64 11.02 39.62 11.01C41.55 10.99 43.47 10.99 45.4 11.01C46.35 11.01 47 11.67 47 12.51C46.99 13.36 46.35 13.97 45.38 13.98C44.42 14 43.46 13.98 42.49 13.99Z" fill="url(#paint4_linear_118_2583)"/>
<path d="M20.02 13.98C19.17 13.99 18.52 13.35 18.52 12.5C18.52 11.67 19.2 10.98 20.02 11C20.79 11.01 21.47 11.68 21.5 12.45C21.53 13.26 20.85 13.97 20.02 13.98Z" fill="url(#paint5_linear_118_2583)"/>
<path d="M27.49 12.5C27.49 13.33 26.81 13.99 25.97 13.98C25.13 13.97 24.48 13.29 24.51 12.45C24.54 11.67 25.2 11.01 25.98 11C26.79 10.99 27.5 11.69 27.49 12.5Z" fill="url(#paint6_linear_118_2583)"/>
<path d="M33.48 12.49C33.49 13.33 32.83 13.99 31.99 13.98C31.16 13.98 30.48 13.29 30.5 12.47C30.52 11.7 31.19 11.02 31.96 11C32.77 10.98 33.48 11.66 33.48 12.49Z" fill="url(#paint7_linear_118_2583)"/>
</g>
<defs>
<linearGradient id="paint0_linear_118_2583" x1="11.7515" y1="90.9404" x2="89.592" y2="10.3735" gradientUnits="userSpaceOnUse">
<stop stop-color="#956AEA"/>
<stop offset="1" stop-color="#56D6E5"/>
</linearGradient>
<linearGradient id="paint1_linear_118_2583" x1="55.6978" y1="87.5408" x2="84.0726" y2="55.5412" gradientUnits="userSpaceOnUse">
<stop stop-color="#956AEA"/>
<stop offset="1" stop-color="#56D6E5"/>
</linearGradient>
<linearGradient id="paint2_linear_118_2583" x1="62.5107" y1="71.689" x2="74.9837" y2="50.5289" gradientUnits="userSpaceOnUse">
<stop stop-color="#956AEA"/>
<stop offset="1" stop-color="#56D6E5"/>
</linearGradient>
<linearGradient id="paint3_linear_118_2583" x1="26.888" y1="69.9022" x2="43.8397" y2="61.1038" gradientUnits="userSpaceOnUse">
<stop stop-color="#956AEA"/>
<stop offset="1" stop-color="#56D6E5"/>
</linearGradient>
<linearGradient id="paint4_linear_118_2583" x1="38.6935" y1="13.8637" x2="40.2155" y2="9.15601" gradientUnits="userSpaceOnUse">
<stop stop-color="#956AEA"/>
<stop offset="1" stop-color="#56D6E5"/>
</linearGradient>
<linearGradient id="paint5_linear_118_2583" x1="18.7436" y1="13.846" x2="21.3217" y2="11.178" gradientUnits="userSpaceOnUse">
<stop stop-color="#956AEA"/>
<stop offset="1" stop-color="#56D6E5"/>
</linearGradient>
<linearGradient id="paint6_linear_118_2583" x1="24.7326" y1="13.846" x2="27.3105" y2="11.1779" gradientUnits="userSpaceOnUse">
<stop stop-color="#956AEA"/>
<stop offset="1" stop-color="#56D6E5"/>
</linearGradient>
<linearGradient id="paint7_linear_118_2583" x1="30.7231" y1="13.846" x2="33.3013" y2="11.1784" gradientUnits="userSpaceOnUse">
<stop stop-color="#956AEA"/>
<stop offset="1" stop-color="#56D6E5"/>
</linearGradient>
<clipPath id="clip0_118_2583">
<rect width="90" height="90" fill="white" transform="translate(5 5)"/>
</clipPath>
</defs>
</svg>
