<svg width="100" height="100" viewBox="0 0 100 100" fill="none" xmlns="http://www.w3.org/2000/svg">
<g clip-path="url(#clip0_117_2552)">
<path d="M5 25.87C5.15 25.37 5.28 24.87 5.44 24.38C7.38 18.62 14.56 16.79 19.06 20.88C19.4 21.19 19.88 21.44 20.33 21.55C27.77 23.37 30.84 32.12 26.09 38.1C25.69 38.61 25.72 38.9 26.11 39.36C26.98 40.39 27.79 41.46 28.68 42.6C34.52 38.44 41.03 36.16 48.2 35.73C48.2 34.12 48.2 32.58 48.2 30.94C47.88 31.08 47.62 31.19 47.37 31.31C42 33.74 35.7 31.34 33.3 25.92C30.91 20.54 33.43 14.28 38.9 11.93C39.26 11.78 39.61 11.43 39.81 11.09C42.09 7.17 45.48 5 50 5C54.53 5 57.92 7.16 60.2 11.08C60.4 11.42 60.75 11.77 61.11 11.92C65.49 13.83 68.12 18.28 67.56 22.87C66.97 27.65 63.33 31.44 58.57 32.14C56.53 32.44 54.54 32.17 52.65 31.3C52.39 31.18 52.13 31.07 51.81 30.93C51.81 32.56 51.81 34.09 51.81 35.71C58.95 36.13 65.44 38.39 71.33 42.58C72.29 41.36 73.24 40.19 74.13 38.97C74.24 38.82 74.07 38.34 73.9 38.11C71.43 34.8 70.91 31.22 72.57 27.44C73.95 24.3 76.43 22.36 79.76 21.52C80.16 21.42 80.58 21.22 80.88 20.94C84.24 17.84 89.34 17.91 92.55 21.11C95.73 24.29 95.82 29.35 92.78 32.71C92.52 33 92.27 33.36 92.18 33.73C90.55 40.42 83.94 43.76 77.63 41.05C77.5 40.99 77.36 40.95 77.16 40.88C76.15 42.16 75.13 43.45 74.07 44.8C77.76 48.1 80.68 51.97 83.02 56.37C83.02 55.25 82.98 54.13 83.03 53.01C83.16 50.09 85.3 47.79 88.23 47.37C90.97 46.97 93.74 48.66 94.66 51.33C94.84 51.85 95 52.41 94.99 52.95C94.96 57.46 95.04 61.98 94.8 66.47C94.6 70.19 93.36 73.68 91.61 76.98C91.07 78 90.09 78.34 89.19 77.88C88.29 77.42 87.96 76.41 88.49 75.4C90.81 70.98 91.66 66.27 91.52 61.32C91.44 58.66 91.52 55.99 91.5 53.32C91.49 52.05 90.6 51.05 89.41 50.86C88.26 50.67 87.05 51.36 86.7 52.47C86.56 52.9 86.55 53.39 86.54 53.85C86.53 57.22 86.52 60.59 86.54 63.96C86.57 68.04 85.15 71.49 82.22 74.35C79.06 77.45 75.96 80.6 72.83 83.73C72.58 83.98 72.33 84.24 72.05 84.43C71.34 84.91 70.48 84.81 69.88 84.22C69.29 83.64 69.17 82.75 69.63 82.05C69.82 81.76 70.08 81.51 70.33 81.26C73.48 78.11 76.63 74.97 79.77 71.81C80.75 70.83 80.96 69.49 80.41 68.33C79.88 67.23 78.69 66.46 77.47 66.69C76.74 66.83 75.96 67.22 75.43 67.73C72.87 70.18 70.41 72.74 67.87 75.21C67.48 75.59 66.88 75.96 66.37 75.97C61.06 76.13 57.35 78.84 54.63 83.17C52.85 86.01 51.89 89.12 51.82 92.47C51.79 93.56 51.52 94.4 50.56 94.95C50.21 94.95 49.86 94.95 49.51 94.95C48.55 94.4 48.27 93.57 48.24 92.48C48.17 89.2 47.25 86.14 45.52 83.34C42.9 79.09 39.34 76.26 34.13 76.05C33.24 76.01 32.59 75.69 31.98 75.07C29.56 72.61 27.13 70.15 24.64 67.76C24.11 67.25 23.33 66.85 22.6 66.71C21.39 66.47 20.2 67.22 19.65 68.33C19.08 69.48 19.29 70.83 20.26 71.81C23.31 74.89 26.39 77.94 29.45 81.01C29.76 81.32 30.09 81.62 30.35 81.97C31.15 83.08 30.47 84.69 29.12 84.71C28.56 84.72 27.87 84.36 27.46 83.95C24.21 80.78 21.04 77.53 17.8 74.35C14.85 71.45 13.45 68 13.49 63.92C13.52 60.47 13.51 57.01 13.49 53.55C13.48 51.92 12.48 50.84 11.03 50.82C9.56 50.81 8.53 51.94 8.52 53.59C8.51 56.61 8.54 59.62 8.51 62.64C8.44 70.18 11.1 76.57 16.46 81.86C19.69 85.05 22.88 88.27 26.09 91.48C27.46 92.86 27.36 93.87 25.74 94.93C25.45 94.93 25.15 94.93 24.86 94.93C24.51 94.68 24.12 94.46 23.82 94.16C20.19 90.55 16.54 86.96 12.98 83.29C9.62 79.83 7.29 75.73 6.07 71.06C5.59 69.22 5.35 67.3 5 65.42C5 61.08 5 56.75 5 52.41C5.05 52.3 5.11 52.2 5.13 52.09C5.61 49.36 8.35 46.92 11.76 47.36C14.71 47.73 17.17 50.23 17.01 53.77C16.97 54.63 17 55.49 17 56.36C19.33 51.97 22.24 48.09 25.94 44.8C24.88 43.46 23.87 42.18 22.85 40.89C22.67 40.95 22.53 40.99 22.4 41.05C16 43.75 9.5 40.46 7.83 33.66C7.78 33.47 7.74 33.23 7.61 33.1C6.19 31.74 5.45 30.02 5 28.15C5 27.39 5 26.63 5 25.87ZM49.96 84.29C50.64 83.09 51.18 81.99 51.85 80.97C54.99 76.15 59.22 73.02 65.13 72.55C65.33 72.53 65.58 72.5 65.7 72.38C66.67 71.43 67.62 70.45 68.66 69.4C68.1 68.96 67.65 68.55 67.15 68.22C65.91 67.39 64.63 66.62 63.4 65.77C56.86 61.22 56.28 51.75 62.29 46.54C63.57 45.43 65.15 44.67 66.6 43.74C59.57 39.66 51.91 38.29 43.76 39.82C37.66 40.96 28.63 45.87 27.07 48.88C27.81 48.88 28.51 48.86 29.2 48.88C31.53 48.97 33.44 49.96 34.9 51.74C37.65 55.09 37.18 60.01 33.8 62.74C32.04 64.16 30.87 65.84 30.77 68.14C30.75 68.52 30.94 69 31.19 69.28C32.06 70.23 32.97 71.15 33.92 72.01C34.24 72.3 34.71 72.52 35.13 72.57C39.21 72.97 42.64 74.67 45.48 77.61C47.37 79.54 48.82 81.75 49.96 84.29ZM52.01 26.64C52.49 27.03 52.8 27.34 53.17 27.57C55.66 29.1 58.24 29.2 60.72 27.66C63.21 26.13 64.35 23.77 64.02 20.87C63.68 17.97 62.02 15.97 59.25 15.02C58.31 14.7 57.74 14.21 57.33 13.3C55.9 10.19 53.39 8.5 49.98 8.51C46.57 8.52 44.08 10.23 42.66 13.35C42.27 14.19 41.77 14.71 40.87 14.98C37.68 15.96 35.75 18.86 35.94 22.24C36.12 25.32 38.53 28.04 41.68 28.61C43.52 28.94 45.27 28.65 46.89 27.51C46.62 27.23 46.41 26.99 46.19 26.77C45.14 25.71 44.06 24.68 43.03 23.59C42.08 22.6 42.34 21.16 43.53 20.69C44.32 20.38 45.01 20.6 45.61 21.21C46.43 22.05 47.27 22.88 48.25 23.86C48.25 21.15 48.23 18.7 48.26 16.24C48.27 15.16 49.01 14.44 50.01 14.44C51.01 14.44 51.74 15.16 51.76 16.24C51.79 17.67 51.77 19.11 51.77 20.55C51.77 21 51.77 21.44 51.77 21.89C51.86 21.93 51.96 21.98 52.05 22.02C52.32 21.68 52.56 21.29 52.88 21C53.59 20.37 54.63 20.42 55.27 21.04C55.96 21.72 56.02 22.74 55.3 23.48C54.26 24.55 53.16 25.55 52.01 26.64ZM71.32 66.84C74.12 63.4 77.5 61.65 81.98 64.62C80.38 58.03 77.15 52.6 72.38 48.02C71.31 46.99 70.24 46.78 68.91 47.04C65.34 47.73 62.55 50.4 61.82 53.87C61.07 57.42 62.53 60.96 65.6 63.03C67.47 64.28 69.34 65.52 71.32 66.84ZM24.86 31.66C24.86 28.33 22.48 25.49 19.1 24.91C18.17 24.75 17.5 24.4 16.88 23.7C15.08 21.71 11.97 21.66 10.03 23.51C8.05 25.4 7.97 28.55 9.96 30.41C10.74 31.14 11.13 31.92 11.31 32.95C11.93 36.38 15.18 38.81 18.57 38.49C22.15 38.15 24.86 35.2 24.86 31.66ZM75.15 31.69C75.16 35.22 77.9 38.18 81.46 38.49C84.84 38.79 88.06 36.39 88.68 33.01C88.87 31.95 89.27 31.15 90.06 30.39C92.04 28.52 91.94 25.37 89.95 23.49C87.97 21.62 84.85 21.72 83.04 23.78C82.48 24.41 81.88 24.75 81.04 24.88C77.59 25.41 75.14 28.28 75.15 31.69ZM27.58 65.62C28.99 62.4 29.06 62.31 31.66 59.97C33.03 58.74 33.51 56.93 32.93 55.26C32.33 53.56 30.8 52.43 28.91 52.38C27.39 52.34 25.86 52.34 24.34 52.39C24.02 52.4 23.61 52.61 23.42 52.86C21.71 55.14 20.35 57.63 19.37 60.31C18.87 61.68 18.46 63.09 17.93 64.7C21.12 62.5 24.6 62.51 27.58 65.62Z" fill="url(#paint0_linear_117_2552)"/>
<path d="M74.27 94.95C72.65 93.89 72.54 92.88 73.91 91.51C75.33 90.08 76.76 88.66 78.19 87.24C79.1 86.34 80.13 86.27 80.89 87.03C81.65 87.79 81.57 88.82 80.66 89.73C79.18 91.22 77.7 92.71 76.19 94.18C75.89 94.48 75.5 94.69 75.15 94.95C74.85 94.95 74.56 94.95 74.27 94.95Z" fill="url(#paint1_linear_117_2552)"/>
<path d="M86.97 82.69C86.95 83.66 86.19 84.41 85.22 84.4C84.27 84.39 83.49 83.62 83.49 82.66C83.48 81.68 84.33 80.86 85.3 80.9C86.26 80.94 86.99 81.72 86.97 82.69Z" fill="url(#paint2_linear_117_2552)"/>
<path d="M39.91 65.43C39.74 63.05 40.16 60.81 41.75 58.94C43.83 56.5 46.47 55.38 49.65 56.14C52.6 56.85 54.46 58.81 55.18 61.77C55.61 63.54 55.36 65.26 54.51 66.88C53.93 67.99 53.32 69.09 52.7 70.19C51.15 72.91 48.19 74.28 45.27 73.63C42.29 72.97 40.2 70.57 39.91 67.46C39.86 66.78 39.91 66.1 39.91 65.43ZM43.27 65.4C43.3 65.41 43.33 65.41 43.35 65.42C43.38 66.09 43.36 66.77 43.45 67.43C43.64 68.81 44.67 69.89 45.95 70.16C47.35 70.45 48.72 69.94 49.45 68.73C50.19 67.51 50.91 66.26 51.51 64.96C52.52 62.77 51.28 60.25 48.96 59.58C46.84 58.97 44.43 60.28 43.7 62.56C43.42 63.46 43.41 64.45 43.27 65.4Z" fill="url(#paint3_linear_117_2552)"/>
</g>
<defs>
<linearGradient id="paint0_linear_117_2552" x1="11.7499" y1="90.9022" x2="89.5552" y2="10.3546" gradientUnits="userSpaceOnUse">
<stop stop-color="#956AEA"/>
<stop offset="1" stop-color="#56D6E5"/>
</linearGradient>
<linearGradient id="paint1_linear_117_2552" x1="73.5952" y1="94.5701" x2="80.8973" y2="87.0121" gradientUnits="userSpaceOnUse">
<stop stop-color="#956AEA"/>
<stop offset="1" stop-color="#56D6E5"/>
</linearGradient>
<linearGradient id="paint2_linear_117_2552" x1="83.751" y1="84.2426" x2="86.7803" y2="81.1269" gradientUnits="userSpaceOnUse">
<stop stop-color="#956AEA"/>
<stop offset="1" stop-color="#56D6E5"/>
</linearGradient>
<linearGradient id="paint3_linear_117_2552" x1="41.0382" y1="72.9849" x2="56.4275" y2="59.1749" gradientUnits="userSpaceOnUse">
<stop stop-color="#956AEA"/>
<stop offset="1" stop-color="#56D6E5"/>
</linearGradient>
<clipPath id="clip0_117_2552">
<rect width="90" height="89.95" fill="white" transform="translate(5 5)"/>
</clipPath>
</defs>
</svg>
