<svg width="20" height="20" viewBox="0 0 20 20" fill="none" xmlns="http://www.w3.org/2000/svg">
<path d="M15.8333 9.16666H5.95001L8.97501 5.53333C9.11646 5.36315 9.18451 5.14375 9.16419 4.92339C9.14388 4.70304 9.03686 4.49978 8.86668 4.35833C8.6965 4.21688 8.4771 4.14883 8.25674 4.16915C8.03639 4.18946 7.83313 4.29648 7.69168 4.46666L3.52501 9.46666C3.49698 9.50643 3.47191 9.54821 3.45001 9.59166C3.45001 9.63333 3.45001 9.65833 3.39168 9.7C3.3539 9.79555 3.33413 9.89726 3.33334 10C3.33413 10.1027 3.3539 10.2044 3.39168 10.3C3.39168 10.3417 3.39168 10.3667 3.45001 10.4083C3.47191 10.4518 3.49698 10.4936 3.52501 10.5333L7.69168 15.5333C7.77003 15.6274 7.86815 15.703 7.97905 15.7549C8.08995 15.8068 8.21092 15.8335 8.33334 15.8333C8.52805 15.8337 8.71675 15.7659 8.86668 15.6417C8.95106 15.5717 9.02081 15.4858 9.07194 15.3888C9.12306 15.2919 9.15456 15.1858 9.16462 15.0766C9.17469 14.9675 9.16312 14.8574 9.13058 14.7528C9.09804 14.6481 9.04518 14.5509 8.97501 14.4667L5.95001 10.8333H15.8333C16.0544 10.8333 16.2663 10.7455 16.4226 10.5893C16.5789 10.433 16.6667 10.221 16.6667 10C16.6667 9.77898 16.5789 9.56702 16.4226 9.41074C16.2663 9.25446 16.0544 9.16666 15.8333 9.16666Z" fill="#A2A0A9"/>
</svg>
