<svg width="20" height="21" viewBox="0 0 20 21" fill="none" xmlns="http://www.w3.org/2000/svg">
<path d="M14.5757 7.57574C14.8101 7.34142 15.1899 7.34142 15.4243 7.57574C15.6586 7.81005 15.6586 8.18995 15.4243 8.42426L14.5757 7.57574ZM10 13L10.4243 13.4243L10 13.8485L9.57574 13.4243L10 13ZM4.57574 8.42426C4.34142 8.18995 4.34142 7.81005 4.57574 7.57574C4.81005 7.34142 5.18995 7.34142 5.42426 7.57574L4.57574 8.42426ZM15.4243 8.42426L10.4243 13.4243L9.57574 12.5757L14.5757 7.57574L15.4243 8.42426ZM9.57574 13.4243L4.57574 8.42426L5.42426 7.57574L10.4243 12.5757L9.57574 13.4243Z" fill="white"/>
</svg>
