<svg width="24" height="24" viewBox="0 0 24 24" fill="none" xmlns="http://www.w3.org/2000/svg">
<path d="M11 4.12134H4C3.46957 4.12134 2.96086 4.33205 2.58579 4.70712C2.21071 5.0822 2 5.5909 2 6.12134V20.1213C2 20.6518 2.21071 21.1605 2.58579 21.5356C2.96086 21.9106 3.46957 22.1213 4 22.1213H18C18.5304 22.1213 19.0391 21.9106 19.4142 21.5356C19.7893 21.1605 20 20.6518 20 20.1213V13.1213" stroke="#FEFEFE" stroke-width="1.5" stroke-linecap="round" stroke-linejoin="round"/>
<path d="M17.4098 3.61598C17.8042 3.22158 18.3391 3 18.8969 3C19.4547 3 19.9896 3.22158 20.384 3.61598C20.7784 4.01039 21 4.54532 21 5.1031C21 5.66087 20.7784 6.1958 20.384 6.59021L10.9656 16.0086L7 17L7.99141 13.0344L17.4098 3.61598Z" stroke="#FEFEFE" stroke-width="1.5" stroke-linecap="round" stroke-linejoin="round"/>
</svg>
