<svg width="16" height="17" viewBox="0 0 16 17" fill="none" xmlns="http://www.w3.org/2000/svg">
<path d="M6 9.16663L10 9.16663" stroke="#6A6A6A" stroke-width="1.2" stroke-linecap="round"/>
<path d="M6 6.5L8.66667 6.5" stroke="#6A6A6A" stroke-width="1.2" stroke-linecap="round"/>
<path d="M6 11.8334L8.66667 11.8334" stroke="#6A6A6A" stroke-width="1.2" stroke-linecap="round"/>
<path d="M12.6673 9.16667V9.83333C12.6673 11.3878 12.6673 12.1651 12.3862 12.7679C12.0882 13.4071 11.5744 13.9208 10.9352 14.2189C10.3324 14.5 9.55515 14.5 8.00065 14.5V14.5C6.44615 14.5 5.6689 14.5 5.06613 14.2189C4.4269 13.9208 3.91314 13.4071 3.61506 12.7679C3.33398 12.1651 3.33398 11.3878 3.33398 9.83333V6.5C3.33398 5.57003 3.33398 5.10504 3.43621 4.72354C3.71361 3.68827 4.52225 2.87962 5.55753 2.60222C5.93903 2.5 6.40401 2.5 7.33398 2.5V2.5" stroke="#6A6A6A" stroke-width="1.2"/>
<path d="M12 2.5L12 6.5" stroke="#6A6A6A" stroke-width="1.2" stroke-linecap="round"/>
<path d="M14 4.5L10 4.5" stroke="#6A6A6A" stroke-width="1.2" stroke-linecap="round"/>
</svg>
