<svg width="24" height="24" viewBox="0 0 24 24" fill="none" xmlns="http://www.w3.org/2000/svg">
<path d="M4 11.7577C4 10.2349 4 9.47348 4.31367 8.80419C4.62734 8.13489 5.21642 7.63937 6.39457 6.64832L7.53743 5.68697C9.66694 3.89566 10.7317 3 12 3C13.2683 3 14.3331 3.89566 16.4626 5.68697L17.6054 6.64832C18.7836 7.63937 19.3727 8.13489 19.6863 8.80419C20 9.47348 20 10.2349 20 11.7577V16.5137C20 18.6285 20 19.686 19.3305 20.343C18.6611 21 17.5836 21 15.4286 21H8.57143C6.41644 21 5.33894 21 4.66947 20.343C4 19.686 4 18.6285 4 16.5137V11.7577Z" stroke="#6A6A6A" stroke-width="1.5"/>
<path d="M15 21V15C15 14.4477 14.5523 14 14 14H10C9.44772 14 9 14.4477 9 15V21" stroke="#6A6A6A" stroke-width="1.5" stroke-linecap="round" stroke-linejoin="round"/>
</svg>
