<svg width="40" height="40" viewBox="0 0 40 40" fill="none" xmlns="http://www.w3.org/2000/svg">
<circle cx="20" cy="20" r="19" stroke="#A2A0A9" stroke-width="2"/>
<path d="M25.8333 19.1667H15.95L18.975 15.5333C19.1165 15.3631 19.1845 15.1437 19.1642 14.9234C19.1439 14.703 19.0369 14.4998 18.8667 14.3583C18.6965 14.2169 18.4771 14.1488 18.2567 14.1691C18.0364 14.1895 17.8331 14.2965 17.6917 14.4667L13.525 19.4667C13.497 19.5064 13.4719 19.5482 13.45 19.5917C13.45 19.6333 13.45 19.6583 13.3917 19.7C13.3539 19.7955 13.3341 19.8973 13.3333 20C13.3341 20.1027 13.3539 20.2044 13.3917 20.3C13.3917 20.3417 13.3917 20.3667 13.45 20.4083C13.4719 20.4518 13.497 20.4936 13.525 20.5333L17.6917 25.5333C17.77 25.6274 17.8681 25.703 17.979 25.7549C18.09 25.8068 18.2109 25.8335 18.3333 25.8333C18.5281 25.8337 18.7168 25.7659 18.8667 25.6417C18.9511 25.5717 19.0208 25.4858 19.0719 25.3888C19.1231 25.2919 19.1546 25.1858 19.1646 25.0766C19.1747 24.9675 19.1631 24.8574 19.1306 24.7528C19.098 24.6481 19.0452 24.5509 18.975 24.4667L15.95 20.8333H25.8333C26.0544 20.8333 26.2663 20.7455 26.4226 20.5893C26.5789 20.433 26.6667 20.221 26.6667 20C26.6667 19.779 26.5789 19.567 26.4226 19.4107C26.2663 19.2545 26.0544 19.1667 25.8333 19.1667Z" fill="#A2A0A9"/>
</svg>
