<svg width="16" height="17" viewBox="0 0 16 17" fill="none" xmlns="http://www.w3.org/2000/svg">
<path d="M2.66602 9.7C2.66602 8.57989 2.66602 8.01984 2.884 7.59202C3.07575 7.21569 3.38171 6.90973 3.75803 6.71799C4.18586 6.5 4.74591 6.5 5.86602 6.5H10.1327C11.2528 6.5 11.8128 6.5 12.2407 6.71799C12.617 6.90973 12.9229 7.21569 13.1147 7.59202C13.3327 8.01984 13.3327 8.5799 13.3327 9.7V9.7C13.3327 11.3802 13.3327 12.2202 13.0057 12.862C12.7181 13.4265 12.2591 13.8854 11.6947 14.173C11.0529 14.5 10.2128 14.5 8.53268 14.5H7.46602C5.78586 14.5 4.94578 14.5 4.30404 14.173C3.73956 13.8854 3.28062 13.4265 2.993 12.862C2.66602 12.2202 2.66602 11.3802 2.66602 9.7V9.7Z" stroke="#6A6A6A" stroke-width="1.2"/>
<path d="M10.6654 5.83333V5.16667C10.6654 3.69391 9.47146 2.5 7.9987 2.5V2.5C6.52594 2.5 5.33203 3.69391 5.33203 5.16667V5.83333" stroke="#6A6A6A" stroke-width="1.2" stroke-linecap="round"/>
<ellipse cx="7.99935" cy="10.5" rx="1.33333" ry="1.33333" fill="#6A6A6A"/>
</svg>
