<svg width="100" height="100" viewBox="0 0 100 100" fill="none" xmlns="http://www.w3.org/2000/svg">
<g clip-path="url(#clip0_63_363)">
<path d="M16.62 31.12C16.62 27.4 16.62 23.75 16.62 20.09C16.62 17.75 17.72 16.66 20.06 16.65C26.29 16.65 32.51 16.65 38.74 16.65C39.07 16.65 39.4 16.65 39.84 16.65C39.62 12.86 40.72 9.62998 43.72 7.22998C45.66 5.68998 47.9 4.94998 50.38 5.05998C53.37 5.18998 55.86 6.41998 57.79 8.70998C59.7 10.98 60.32 13.66 60.14 16.6C61.13 16.6 62.02 16.6 63.02 16.6C63.02 14.24 63.02 11.87 63.02 9.31998C64.22 9.31998 65.34 9.38998 66.44 9.30998C70.68 8.98998 74.58 7.61998 78.14 5.30998C78.79 4.88998 79.26 4.89998 79.91 5.31998C84.3 8.13998 89.1 9.51998 94.33 9.39998C94.51 9.39998 94.68 9.40998 94.98 9.42998C94.98 9.77998 94.98 10.1 94.98 10.42C94.98 14.02 94.99 17.61 94.98 21.21C94.94 29.8 91.32 36.38 83.89 40.77C83.33 41.1 83.37 41.51 83.37 41.98C83.37 53.28 83.37 64.59 83.37 75.89C83.37 81.15 83.37 86.41 83.37 91.67C83.37 93.89 82.24 95.01 80.01 95.01C60 95.01 39.99 95.01 19.98 95.01C17.75 95.01 16.62 93.9 16.62 91.67C16.62 82.15 16.61 72.63 16.63 63.11C16.63 62.48 16.45 62.05 16.01 61.61C13.77 59.41 11.54 57.19 9.34001 54.95C4.08001 49.6 3.56001 41.59 8.06001 35.59C10 32.98 12.48 31.68 16.62 31.12ZM26.89 36.3C27.52 35.66 28.14 34.97 28.82 34.33C33.34 29.99 40.42 30.08 44.68 34.64C47.69 37.86 48.89 41.76 48.43 46.15C48.35 46.94 48.18 47.73 48.04 48.57C52.06 48.57 56.02 48.58 59.97 48.55C60.2 48.55 60.52 48.26 60.65 48.02C61.47 46.6 62.66 45.78 64.3 45.69C66.47 45.57 68.35 47.09 68.78 49.26C69.18 51.24 68.02 53.31 66.08 54.07C64.08 54.86 61.84 54.08 60.76 52.2C60.53 51.81 60.41 51.46 59.8 51.46C55.66 51.5 51.52 51.47 47.38 51.5C47.09 51.5 46.74 51.73 46.54 51.97C45.57 53.12 44.74 54.4 43.68 55.47C38.31 60.91 32.88 66.3 27.47 71.71C27.24 71.94 27.01 72.15 26.78 72.37C26.28 71.91 25.86 71.52 25.37 71.08C25.37 76.23 25.37 81.24 25.37 86.25C41.81 86.25 58.2 86.25 74.57 86.25C74.57 78.88 74.57 71.57 74.57 64.12C73.72 65.07 72.93 65.88 72.24 66.75C71.97 67.09 71.77 67.59 71.77 68.03C71.73 71.63 71.75 75.22 71.75 78.82C71.75 79.36 71.75 79.89 71.75 80.46C65.91 80.46 60.16 80.46 54.41 80.46C54.41 74.65 54.41 68.9 54.41 63.1C58.98 63.1 63.48 63.1 67.98 63.1C69.19 63.1 70.53 63.38 71.56 62.95C72.52 62.54 73.14 61.35 73.91 60.5C73.99 60.41 74.1 60.34 74.15 60.23C74.33 59.81 74.64 59.38 74.64 58.95C74.67 53.27 74.65 47.59 74.68 41.9C74.68 41.31 74.5 41 73.98 40.7C69.89 38.36 66.83 35.06 64.97 30.73C64.24 29.03 63.77 27.22 63.17 25.43C50.63 25.43 38.01 25.43 25.34 25.43C25.34 28.08 25.42 30.68 25.31 33.27C25.23 34.58 25.6 35.54 26.89 36.3ZM26.7 40.56C25.28 39.09 23.97 37.62 22.55 36.28C19.1 33.04 13.76 33.37 10.67 36.96C6.74001 41.52 7.02001 48.46 11.37 52.86C16.34 57.89 21.36 62.87 26.36 67.86C26.48 67.98 26.62 68.09 26.75 68.2C26.67 68.09 26.58 67.98 26.5 67.87C32.02 62.4 37.54 56.94 43.03 51.51C43.08 51.52 43 51.48 42.92 51.48C39.96 51.48 37 51.46 34.04 51.5C33.73 51.5 33.3 51.85 33.15 52.15C31.66 55.05 30.22 57.97 28.76 60.89C28.52 61.37 28.27 61.84 27.95 62.48C26.53 58.25 25.18 54.19 23.75 49.9C23.18 51.32 22.71 52.52 22.21 53.71C22.11 53.96 21.88 54.33 21.69 54.34C20.01 54.39 18.33 54.37 16.66 54.37C16.66 53.35 16.66 52.46 16.66 51.48C17.39 51.48 18.08 51.41 18.76 51.5C19.68 51.61 20.12 51.28 20.45 50.39C21.55 47.46 22.75 44.57 23.99 41.48C25.51 46.03 26.97 50.4 28.49 54.94C29.28 53.38 30.13 52.01 30.67 50.52C31.26 48.88 32.23 48.47 33.9 48.54C37.55 48.68 41.21 48.58 44.83 48.58C45.87 46.28 45.88 43.05 44.88 40.39C42.11 32.98 34.21 32.3 30.06 37.16C29.08 38.31 27.92 39.34 26.7 40.56ZM80.4 92.05C80.4 75.47 80.4 58.96 80.4 42.61C79.42 42.61 78.51 42.61 77.5 42.61C77.5 58.07 77.5 73.62 77.5 89.14C59.1 89.14 40.8 89.14 22.42 89.14C22.42 88.77 22.42 88.44 22.42 88.11C22.42 81.7 22.42 75.29 22.41 68.89C22.41 68.57 22.45 68.14 22.27 67.94C21.44 67.02 20.54 66.16 19.55 65.17C19.55 74.26 19.55 83.13 19.55 92.05C39.85 92.05 60.09 92.05 80.4 92.05ZM65.95 12.42C65.95 15.64 65.92 18.93 65.96 22.22C66.04 29.99 71.07 36.99 78.4 39.57C78.74 39.69 79.2 39.73 79.52 39.61C86.53 36.89 90.86 31.85 91.81 24.38C92.31 20.45 91.99 16.42 92.03 12.44C92.03 12.39 91.97 12.35 91.93 12.3C91.87 12.28 91.81 12.26 91.76 12.25C87.36 11.91 83.24 10.66 79.41 8.44998C79.16 8.30998 78.68 8.42998 78.36 8.55998C76.13 9.45998 73.96 10.54 71.68 11.28C69.86 11.88 67.92 12.05 65.95 12.42ZM22.41 22.43C36.02 22.43 49.52 22.43 62.98 22.43C62.98 21.41 62.98 20.5 62.98 19.61C48.47 19.61 34.03 19.61 19.56 19.61C19.56 23.58 19.56 27.5 19.56 31.41C20.51 31.77 21.42 32.12 22.41 32.5C22.41 29.16 22.41 25.87 22.41 22.43ZM68.96 66.03C64.95 66.03 61.13 66.03 57.31 66.03C57.31 69.9 57.31 73.72 57.31 77.51C61.19 77.51 65.01 77.51 68.8 77.51C68.8 75.22 68.8 73 68.8 70.6C67.33 72.25 65.97 73.76 64.7 75.19C62.88 73.35 61.11 71.55 59.37 69.8C59.9 69.24 60.52 68.59 61.27 67.8C62.32 68.94 63.33 70.04 64.39 71.18C65.94 69.43 67.38 67.81 68.96 66.03ZM57.2 16.61C57.47 13.33 56.51 10.66 53.65 8.97998C51.05 7.43998 48.37 7.54998 45.88 9.24998C43.31 11 42.49 13.57 42.78 16.59C43.75 16.59 44.67 16.59 45.58 16.59C45.9 12.67 47.17 10.96 49.79 10.86C50.89 10.82 51.87 11.15 52.73 11.84C54.26 13.07 54.47 14.78 54.32 16.62C55.33 16.61 56.22 16.61 57.2 16.61ZM48.57 16.6C49.55 16.6 50.46 16.6 51.37 16.6C51.58 14.64 51.16 13.78 50.01 13.76C48.89 13.74 48.46 14.55 48.57 16.6ZM65.94 50.01C65.93 49.22 65.27 48.57 64.48 48.58C63.69 48.59 63.04 49.25 63.05 50.04C63.06 50.83 63.72 51.48 64.51 51.47C65.3 51.46 65.95 50.79 65.94 50.01Z" fill="url(#paint0_linear_63_363)"/>
<path d="M51.48 31.1C51.48 30.14 51.48 29.25 51.48 28.31C54.35 28.31 57.17 28.31 60.07 28.31C60.07 29.21 60.07 30.12 60.07 31.1C57.25 31.1 54.4 31.1 51.48 31.1Z" fill="url(#paint1_linear_63_363)"/>
<path d="M51.48 36.9C51.48 35.94 51.48 35.05 51.48 34.11C54.35 34.11 57.17 34.11 60.07 34.11C60.07 35 60.07 35.92 60.07 36.9C57.25 36.9 54.4 36.9 51.48 36.9Z" fill="url(#paint2_linear_63_363)"/>
<path d="M60.1 39.93C60.1 40.88 60.1 41.78 60.1 42.72C57.24 42.72 54.41 42.72 51.51 42.72C51.51 41.83 51.51 40.91 51.51 39.93C54.33 39.93 57.18 39.93 60.1 39.93Z" fill="url(#paint3_linear_63_363)"/>
<path d="M39.78 80.45C38.85 80.45 37.96 80.45 37 80.45C37 79.54 37 78.62 37 77.65C37.9 77.65 38.82 77.65 39.78 77.65C39.78 78.55 39.78 79.45 39.78 80.45Z" fill="url(#paint4_linear_63_363)"/>
<path d="M42.81 77.61C43.76 77.61 44.63 77.61 45.57 77.61C45.57 78.54 45.57 79.45 45.57 80.43C44.67 80.43 43.76 80.43 42.81 80.43C42.81 79.48 42.81 78.55 42.81 77.61Z" fill="url(#paint5_linear_63_363)"/>
<path d="M51.4 77.66C51.4 78.61 51.4 79.5 51.4 80.44C50.45 80.44 49.54 80.44 48.58 80.44C48.58 79.51 48.58 78.62 48.58 77.66C49.49 77.66 50.4 77.66 51.4 77.66Z" fill="url(#paint6_linear_63_363)"/>
<path d="M83.36 28.26C83.36 29.26 83.37 30.16 83.36 31.05C83.33 32.81 82.15 34.02 80.41 34.06C79.47 34.08 78.54 34.08 77.6 34.06C75.9 34.02 74.7 32.83 74.66 31.14C74.64 30.21 74.66 29.28 74.66 28.26C73.68 28.26 72.78 28.27 71.89 28.26C70.08 28.23 68.89 27.04 68.86 25.24C68.85 24.3 68.84 23.37 68.86 22.43C68.91 20.8 70.12 19.6 71.76 19.56C72.69 19.54 73.62 19.56 74.66 19.56C74.66 18.6 74.65 17.71 74.66 16.81C74.68 14.97 75.89 13.78 77.74 13.76C78.65 13.75 79.55 13.74 80.46 13.76C82.1 13.8 83.31 15 83.35 16.63C83.38 17.56 83.35 18.5 83.35 19.56C84.26 19.56 85.12 19.56 85.99 19.56C87.97 19.57 89.14 20.74 89.16 22.71C89.17 23.59 89.18 24.46 89.16 25.34C89.12 27.03 87.91 28.22 86.22 28.26C85.31 28.27 84.41 28.26 83.36 28.26ZM71.79 25.37C73.71 25.37 75.6 25.37 77.58 25.37C77.58 27.35 77.58 29.24 77.58 31.12C78.57 31.12 79.47 31.12 80.46 31.12C80.46 29.2 80.46 27.31 80.46 25.33C82.44 25.33 84.33 25.33 86.21 25.33C86.21 24.34 86.21 23.44 86.21 22.45C84.29 22.45 82.4 22.45 80.42 22.45C80.42 20.47 80.42 18.58 80.42 16.7C79.43 16.7 78.53 16.7 77.54 16.7C77.54 18.63 77.54 20.51 77.54 22.49C75.56 22.49 73.67 22.49 71.79 22.49C71.79 23.48 71.79 24.37 71.79 25.37Z" fill="url(#paint7_linear_63_363)"/>
</g>
<defs>
<linearGradient id="paint0_linear_63_363" x1="11.7571" y1="90.9595" x2="89.6168" y2="10.4304" gradientUnits="userSpaceOnUse">
<stop stop-color="#956AEA"/>
<stop offset="1" stop-color="#56D6E5"/>
</linearGradient>
<linearGradient id="paint1_linear_63_363" x1="52.1242" y1="30.9744" x2="53.5043" y2="26.5781" gradientUnits="userSpaceOnUse">
<stop stop-color="#956AEA"/>
<stop offset="1" stop-color="#56D6E5"/>
</linearGradient>
<linearGradient id="paint2_linear_63_363" x1="52.1242" y1="36.7744" x2="53.5043" y2="32.3781" gradientUnits="userSpaceOnUse">
<stop stop-color="#956AEA"/>
<stop offset="1" stop-color="#56D6E5"/>
</linearGradient>
<linearGradient id="paint3_linear_63_363" x1="52.1543" y1="42.5944" x2="53.5343" y2="38.1981" gradientUnits="userSpaceOnUse">
<stop stop-color="#956AEA"/>
<stop offset="1" stop-color="#56D6E5"/>
</linearGradient>
<linearGradient id="paint4_linear_63_363" x1="37.2085" y1="80.324" x2="39.631" y2="77.8353" gradientUnits="userSpaceOnUse">
<stop stop-color="#956AEA"/>
<stop offset="1" stop-color="#56D6E5"/>
</linearGradient>
<linearGradient id="paint5_linear_63_363" x1="43.017" y1="80.3031" x2="45.4575" y2="77.8316" gradientUnits="userSpaceOnUse">
<stop stop-color="#956AEA"/>
<stop offset="1" stop-color="#56D6E5"/>
</linearGradient>
<linearGradient id="paint6_linear_63_363" x1="48.7915" y1="80.3149" x2="51.1948" y2="77.7925" gradientUnits="userSpaceOnUse">
<stop stop-color="#956AEA"/>
<stop offset="1" stop-color="#56D6E5"/>
</linearGradient>
<linearGradient id="paint7_linear_63_363" x1="70.3727" y1="33.1603" x2="87.9552" y2="14.971" gradientUnits="userSpaceOnUse">
<stop stop-color="#956AEA"/>
<stop offset="1" stop-color="#56D6E5"/>
</linearGradient>
<clipPath id="clip0_63_363">
<rect width="89.97" height="90" fill="white" transform="translate(5 5)"/>
</clipPath>
</defs>
</svg>
