<svg width="100" height="100" viewBox="0 0 100 100" fill="none" xmlns="http://www.w3.org/2000/svg">
<g clip-path="url(#clip0_120_2664)">
<path d="M95.24 17.12C94.19 13.7 91.69 13.29 89.62 13.31C83.42 13.37 77.12 13.35 71.02 13.33L67.92 13.32C67.41 13.32 66.85 13.2 66.38 12.99C61.29 10.69 56.61 8.55998 52.1 6.46998C50.76 5.84998 49.52 5.84998 48.21 6.45998C43.81 8.49998 39.2 10.61 34.09 12.91C33.51 13.17 32.83 13.32 32.21 13.32C27.53 13.34 22.77 13.34 18.17 13.34C15.38 13.34 12.59 13.34 9.81 13.34C7 13.34 5.04 15.3 5.02 18.1C5.01 19.56 5.01 21.02 5.02 22.48V24.25C5.02 24.66 5.02 25.06 5.01 25.47C5 26.54 4.99 27.65 5.06 28.74C5.09 29.22 5.48 29.84 5.9 30.05C6.28 30.25 7.03 30.14 7.38 29.84C7.72 29.54 7.88 28.91 7.89 28.42C7.91 26 7.91 23.54 7.9 21.17C7.9 20.28 7.9 19.39 7.9 18.5C7.9 16.8 8.47 16.23 10.14 16.23C14.18 16.23 18.22 16.23 22.27 16.23H26.56C24.89 17.14 23.19 17.92 21.71 18.58C21.6 18.63 21.45 18.62 21.3 18.62C21.25 18.62 21.2 18.62 21.15 18.62C19.45 18.62 17.76 18.62 16.06 18.62H13.15C10.98 18.62 10.29 19.31 10.29 21.45V66.35H7.9V35.75C7.9 34.85 7.73 34.26 7.39 33.92C7.15 33.69 6.82 33.58 6.43 33.59C5.45 33.61 5.02 34.27 5.02 35.72V71.48C5.02 74.83 6.88 76.68 10.26 76.68C16.76 76.68 23.27 76.68 29.77 76.68H37.2V84.87C36.85 84.87 36.5 84.87 36.15 84.87C35.29 84.87 34.49 84.86 33.66 84.88C31.42 84.93 29.68 86.67 29.63 88.93C29.62 89.25 29.62 89.57 29.63 89.89V90.25C29.63 92.27 30.38 93.03 32.38 93.03H67.88H68.05C68.11 93.03 68.16 93.03 68.22 93.03C68.32 93.03 68.41 93.03 68.51 93.02C69.75 92.95 70.59 92.11 70.65 90.89C70.67 90.46 70.67 90.03 70.66 89.6V89.21C70.64 86.58 68.93 84.88 66.29 84.87C65.53 84.87 64.77 84.87 64 84.87H63.09V76.68H71.99C73.44 76.68 74.1 76.24 74.13 75.27C74.14 74.86 74.04 74.54 73.81 74.3C73.48 73.96 72.88 73.79 71.98 73.79H10.56H10.3C10.04 73.79 9.77 73.8 9.52 73.77C8.65 73.68 8.01 73.1 7.95 72.35C7.89 71.63 7.91 70.89 7.92 70.18C7.92 69.91 7.93 69.64 7.93 69.36H92.36V69.91C92.36 70.45 92.36 70.97 92.36 71.49C92.36 73.23 91.8 73.79 90.05 73.79H88.76C85.53 73.79 82.3 73.79 79.07 73.79H79.06C78.14 73.79 77.61 74.16 77.44 74.93C77.34 75.37 77.42 75.77 77.67 76.09C77.97 76.47 78.49 76.67 79.14 76.68C83.08 76.69 87.1 76.68 90.56 76.68C90.84 76.68 91.14 76.65 91.45 76.59C93.33 76.23 94.56 75.03 95.23 72.92L95.24 17.17V17.12ZM78.44 18.5C77.13 17.92 75.8 17.32 74.52 16.73L73.4 16.22H84.29C86.31 16.22 88.32 16.22 90.34 16.22C91.7 16.22 92.36 16.86 92.36 18.18C92.36 31.64 92.36 45.1 92.36 58.56V66.13C92.36 66.18 92.35 66.23 92.35 66.3V66.34H89.98V21.47C89.98 19.3 89.29 18.6 87.15 18.6H84.83C82.97 18.6 81.11 18.6 79.25 18.6C78.96 18.6 78.67 18.6 78.44 18.5ZM31.86 40.89C37.63 43.51 42.83 45.88 48.12 48.34C49.49 48.98 50.76 48.98 52.1 48.36C56.87 46.16 62.04 43.79 68.37 40.93C68.64 40.81 69.07 40.73 69.31 40.84C71.66 41.88 73.97 42.94 76.42 44.07L78.17 44.87C78.13 44.89 78.09 44.91 78.05 44.93C77.84 45.04 77.67 45.13 77.49 45.21L70.98 48.19C64.33 51.23 57.68 54.28 51.03 57.33C50.4 57.62 49.9 57.62 49.31 57.35C42.46 54.2 35.5 51.01 28.76 47.93L22.77 45.19C22.6 45.11 22.44 45.03 22.24 44.93C22.2 44.91 22.16 44.89 22.12 44.87L23.76 44.12C26.28 42.97 28.66 41.88 31.09 40.8C31.27 40.71 31.62 40.78 31.86 40.89ZM52.14 36.69C54.75 35.48 57.37 34.29 59.99 33.09C62.74 31.83 65.5 30.57 68.24 29.3C68.75 29.07 69.13 29.06 69.61 29.29C71.75 30.29 73.86 31.26 76.1 32.28C76.79 32.59 77.48 32.91 78.19 33.23L62.09 40.6C58.42 42.28 54.74 43.96 51.07 45.65C50.49 45.91 50.02 46.02 49.43 45.75C42.36 42.5 35.17 39.21 28.21 36.03L22.47 33.41C22.37 33.36 22.27 33.31 22.15 33.25L22.13 33.24L22.45 33.09C22.79 32.93 23.1 32.78 23.42 32.63C24.14 32.3 24.87 31.97 25.59 31.64C27.21 30.9 28.88 30.14 30.51 29.37C31.11 29.09 31.54 29.08 32.12 29.35C35.41 30.88 38.77 32.41 42.01 33.89C44.11 34.85 46.21 35.81 48.31 36.77C49.55 37.34 50.8 37.31 52.14 36.69ZM76.15 22.52C74.5 23.28 72.89 24.02 71.29 24.75L67.8 26.34C62.3 28.86 56.62 31.46 51.02 33.98C50.6 34.17 49.92 34.27 49.48 34.07C41.83 30.61 34.35 27.19 26.44 23.57L22.08 21.58L23.83 20.78C25.18 20.16 26.49 19.56 27.79 18.96L32.76 16.69C38.16 14.22 43.75 11.67 49.24 9.13998C49.88 8.84998 50.4 8.84998 51.04 9.13998C57.9 12.29 64.88 15.49 71.63 18.57L77.43 21.22C77.61 21.3 77.8 21.39 78.02 21.5L78.18 21.58L76.15 22.52ZM27.14 27.74C26.49 28.04 25.9 28.32 25.3 28.59L24.89 28.78C23.33 29.5 21.71 30.24 20.11 30.95C19.04 31.43 18.52 32.17 18.51 33.21C18.5 34.27 19.04 35.04 20.15 35.53C22.02 36.37 23.88 37.23 25.8 38.1L27.86 39.04L26.63 39.61C25.67 40.05 24.76 40.48 23.84 40.9L23.07 41.25C22.05 41.72 21.04 42.19 20.01 42.64C19.01 43.08 18.51 43.83 18.5 44.86C18.49 45.89 19 46.64 19.99 47.1L24.89 49.34C32.75 52.93 40.61 56.53 48.47 60.12C49.61 60.64 50.77 60.59 52.12 59.97C58.44 57.07 64.77 54.17 71.1 51.28L77.24 48.47C77.55 48.33 77.87 48.18 78.18 48.03C78.81 47.74 79.46 47.43 80.1 47.15C81.21 46.67 81.74 45.91 81.73 44.83C81.72 43.8 81.2 43.06 80.13 42.58C78.25 41.73 76.38 40.87 74.51 40.01L72.72 39.19C72.64 39.15 72.56 39.11 72.46 39.05L72.44 39.04L73.25 38.66C73.97 38.32 74.66 38 75.35 37.68L76.25 37.26C77.42 36.72 78.62 36.17 79.82 35.65C80.76 35.24 81.72 34.63 81.74 33.24C81.75 31.84 80.81 31.22 79.78 30.76C78.06 29.99 76.32 29.19 74.64 28.42L72.84 27.59C72.73 27.54 72.62 27.48 72.47 27.4L72.43 27.38L77.62 24.99C77.84 24.89 78.07 24.78 78.29 24.68C78.83 24.43 79.38 24.17 79.93 23.94C81.11 23.46 81.71 22.67 81.77 21.53H87.01V66.34H13.22V21.54H18.46C18.46 23.13 19.7 23.68 20.92 24.22C22.58 24.96 24.2 25.7 25.93 26.5C26.56 26.79 27.2 27.08 27.85 27.38L27.14 27.74ZM40.21 84.83V76.71H60.07V84.83H40.21ZM34.54 87.75H65.53C66.53 87.75 67.17 87.81 67.47 88.14C67.77 88.46 67.79 89.1 67.72 90.08H32.51C32.51 89.98 32.51 89.88 32.51 89.79C32.51 89.5 32.5 89.23 32.52 88.96C32.57 88.23 33 87.81 33.76 87.76C33.94 87.75 34.13 87.75 34.31 87.75C34.38 87.75 34.46 87.75 34.54 87.75Z" fill="url(#paint0_linear_120_2664)"/>
</g>
<defs>
<linearGradient id="paint0_linear_120_2664" x1="11.7707" y1="89.1138" x2="86.9063" y2="8.50408" gradientUnits="userSpaceOnUse">
<stop stop-color="#956AEA"/>
<stop offset="1" stop-color="#56D6E5"/>
</linearGradient>
<clipPath id="clip0_120_2664">
<rect width="90.25" height="87.03" fill="white" transform="translate(5 6)"/>
</clipPath>
</defs>
</svg>
