<svg width="100" height="100" viewBox="0 0 100 100" fill="none" xmlns="http://www.w3.org/2000/svg">
<g clip-path="url(#clip0_63_253)">
<path d="M64.4238 5C66.2425 5.23409 68.0612 5.48619 69.889 5.69328C76.0294 6.38655 82.1699 7.06182 88.3103 7.7461C89.0396 7.82713 89.7689 7.89916 90.4892 7.9892C91.4346 8.10624 91.9118 8.57443 92.0198 9.5018C92.56 14.3367 93.0822 19.1627 93.6224 23.9976C94.0636 27.9232 94.4868 31.8577 94.964 35.7833C95.072 36.6927 94.901 37.44 94.1627 37.9532C92.398 39.1777 92.0918 40.6543 92.6771 42.7431C93.6134 46.0924 94.2077 49.5318 94.892 52.9442C95.4592 55.7803 93.6134 58.4544 90.8223 58.9406C88.0582 59.4268 85.4742 57.608 84.979 54.7719C84.6549 52.9262 84.4028 51.0714 84.1236 49.2167C84.0786 48.9286 84.0246 48.6495 83.9526 48.2353C83.4484 48.7125 83.0342 49.0996 82.584 49.5228C81.9178 48.7935 81.2695 48.0822 80.5672 47.3079C81.3325 46.5516 82.2059 45.7233 83.0342 44.8589C83.2143 44.6699 83.3944 44.3547 83.3673 44.1297C83.2233 42.9232 83.0162 41.7257 82.8181 40.4382C81.2335 42.0318 79.7119 43.5624 78.1993 45.084C77.425 44.3097 76.7407 43.6345 75.9934 42.8872C77.1459 41.7977 78.2983 40.7263 79.3878 39.6999C73.0042 33.3163 66.7287 27.0408 60.4172 20.7203C58.3643 22.7821 56.2575 24.889 54.1237 27.0318C53.4394 26.2755 52.8001 25.5642 52.0798 24.7719C53.5834 23.2863 55.2041 21.6837 56.8247 20.081C57.599 19.3157 58.3553 18.5504 59.1297 17.7851C60.1921 16.7317 60.8763 16.7317 61.9568 17.8121C68.5114 24.3577 75.057 30.9034 81.6026 37.458C81.8457 37.7011 81.9898 38.0432 82.1789 38.3403C82.2869 38.2593 82.386 38.1783 82.494 38.1062C82.2149 36.2155 81.9538 34.3247 81.6657 32.434C81.2245 29.4538 80.7473 26.4736 80.3331 23.4844C80.2611 22.9802 80.063 22.7461 79.6218 22.539C77.515 21.5126 76.5516 19.1537 77.3079 16.9838C78.0372 14.895 80.2611 13.6074 82.413 14.0306C84.6819 14.4718 86.2395 16.4796 86.0774 18.8025C85.9604 20.4052 85.1501 21.5936 83.7815 22.44C83.5564 22.584 83.3043 22.9712 83.3403 23.2143C84.1957 29.1837 85.096 35.1441 85.9874 41.1134C86.0144 41.3115 86.0684 41.5006 86.1405 41.7977C88.0762 39.8709 89.94 38.0252 91.7767 36.1435C91.9298 35.9814 91.9298 35.5942 91.8938 35.3241C91.4076 30.7863 90.9124 26.2395 90.4082 21.7017C90.03 18.3253 89.6339 14.949 89.2827 11.5726C89.2287 11.0234 89.0666 10.8433 88.5084 10.7803C80.7653 9.93397 73.0222 9.06963 65.2881 8.18728C64.4328 8.08824 63.8385 8.29532 63.2173 8.92557C60.4352 11.7797 57.599 14.5798 54.7809 17.398C54.5738 17.605 54.4118 17.8481 54.1957 18.1092C53.4484 17.2989 52.7911 16.6056 52.1158 15.8764C52.1699 15.8133 52.2959 15.6423 52.44 15.5072C55.7083 12.2299 58.9856 8.96159 62.2629 5.68427C62.506 5.44118 62.7851 5.23409 63.0552 5.009C63.4874 5 63.9556 5 64.4238 5ZM89.6248 42.491C88.6074 43.5264 87.7431 44.3908 86.8968 45.2821C86.7617 45.4262 86.6537 45.6963 86.6807 45.8944C87.0768 48.6945 87.473 51.5036 87.9412 54.2947C88.1483 55.5192 89.2737 56.2215 90.3992 55.9604C91.5246 55.6993 92.1819 54.6189 91.9388 53.4034C91.7947 52.6921 91.6417 51.9718 91.4886 51.2605C90.8854 48.4064 90.2821 45.5612 89.6248 42.491ZM83.0162 18.4874C83.0072 17.6771 82.2779 16.9838 81.4766 17.0018C80.6483 17.0288 80.009 17.7221 80.045 18.5594C80.072 19.3788 80.6933 19.973 81.5126 19.973C82.3409 19.982 83.0252 19.3067 83.0162 18.4874Z" fill="url(#paint0_linear_63_253)"/>
<path d="M43.5085 5C44.0127 5.14406 44.5259 5.27011 45.0211 5.44118C47.9382 6.46759 49.982 9.22269 50.0001 12.3289C50.0361 19.4418 50.0541 26.5636 50.0001 33.6765C49.973 37.7731 46.6417 40.9514 42.455 41.0144C39.934 41.0504 37.422 41.0234 34.901 41.0234C34.5859 41.0234 34.2618 41.0234 33.8656 41.0234C34.2348 42.9142 34.5679 44.7149 34.946 46.5066C35.0991 47.2449 34.955 47.8571 34.3068 48.2623C33.6585 48.6675 33.0283 48.5054 32.434 48.0732C29.3638 45.8764 26.3026 43.6705 23.2053 41.5006C22.8092 41.2215 22.26 41.0414 21.7738 41.0414C18.8746 40.9964 15.9754 41.0234 13.0763 41.0234C8.90762 41.0234 6.17053 38.8896 5.15312 34.8649C5.12611 34.7569 5.06308 34.6489 5.01807 34.5408C5.01807 26.8067 5.01807 19.0726 5.01807 11.3295C5.0901 11.1134 5.18013 10.9064 5.23415 10.6903C5.90042 8.29532 7.359 6.58463 9.63691 5.58523C10.1681 5.34214 10.7624 5.18908 11.3296 5C22.0529 5 32.7762 5 43.5085 5ZM31.1465 43.4814C31.1735 43.2743 31.2005 43.2113 31.1915 43.1573C31.0115 42.1849 30.8224 41.2035 30.6333 40.2311C30.3362 38.7005 30.8764 38.0252 32.443 38.0252C35.6933 38.0162 38.9436 38.0342 42.1939 38.0162C45.1291 38.0072 47.0109 36.1074 47.0109 33.1543C47.0199 26.3926 47.0199 19.6218 47.0109 12.8601C47.0109 9.86194 45.1291 7.9982 42.1219 7.9892C32.371 7.9892 22.6201 7.9892 12.8602 7.9892C9.862 7.9892 7.99826 9.87095 7.99826 12.8782C7.99826 19.6128 7.99826 26.3475 7.99826 33.0822C7.99826 36.1345 9.862 37.9982 12.9322 38.0072C16.0115 38.0162 19.0817 38.0342 22.1609 37.9892C23.0883 37.9802 23.8446 38.2143 24.5919 38.7635C26.7257 40.3571 28.9046 41.8788 31.1465 43.4814Z" fill="url(#paint1_linear_63_253)"/>
<path d="M5 63.0192C5.35114 62.6321 5.68427 62.2269 6.05342 61.8578C11.5996 56.3025 17.1549 50.7563 22.7011 45.1921C22.9262 44.967 23.0882 44.6789 23.3133 44.3638C24.1056 45.2281 24.7539 45.9304 25.3842 46.6147C19.8559 52.1519 14.2557 57.7521 8.73649 63.2713C18.0912 72.6261 27.3559 81.8908 36.6026 91.1375C38.5744 89.1657 40.6813 87.0588 42.7521 84.979C43.5084 85.7713 44.1657 86.4556 44.877 87.1939C44.8499 87.2209 44.7149 87.41 44.5618 87.5721C42.3289 89.8139 40.087 92.0468 37.8451 94.2797C36.8457 95.2701 36.1435 95.2791 35.1441 94.2797C25.3571 84.4928 15.5522 74.6969 5.7563 64.892C5.4952 64.6309 5.2521 64.3518 5 64.0727C5 63.7215 5 63.3704 5 63.0192Z" fill="url(#paint2_linear_63_253)"/>
<path d="M79.5408 75.9394C83.1963 79.5858 86.8157 83.2143 90.4532 86.8337C91.6327 88.0042 92.2269 89.3818 91.9478 91.0384C91.6417 92.9022 90.5612 94.1897 88.7605 94.7749C86.9598 95.3601 85.3301 94.928 83.9886 93.5954C80.6302 90.2641 77.2809 86.8968 73.9226 83.5474C73.6975 83.3223 73.4634 83.1063 73.2383 82.8902C61.8667 91.1735 47.0108 87.6441 39.8079 77.9472C32.7401 68.4304 33.5864 55.1591 41.8878 46.7317C50.2251 38.2773 63.4424 37.1699 73.0492 44.1116C82.7281 51.1074 86.1404 64.6309 79.5408 75.9394ZM80.027 63.5414C80.045 51.9718 70.6092 42.509 59.0216 42.5C47.488 42.482 38.0702 51.8818 38.0252 63.4424C37.9802 75.066 47.3169 84.4568 58.9586 84.5018C70.5552 84.5468 80 75.1471 80.027 63.5414ZM75.5612 80.9004C75.7593 81.1075 75.9484 81.3235 76.1465 81.5216C79.3517 84.7269 82.557 87.9322 85.7623 91.1375C85.9514 91.3265 86.1314 91.5156 86.3385 91.6687C87.0408 92.1819 87.8962 92.1098 88.4994 91.5156C89.1026 90.9214 89.1747 90.066 88.6795 89.3548C88.5624 89.1927 88.4184 89.0396 88.2743 88.8956C84.925 85.5462 81.5756 82.1879 78.2173 78.8475C78.0822 78.7125 77.9202 78.6044 77.7671 78.4964C77.0288 79.3157 76.3085 80.09 75.5612 80.9004Z" fill="url(#paint3_linear_63_253)"/>
<path d="M25.7263 53.7725C26.3566 54.4118 27.0228 55.087 27.6621 55.7263C24.4838 58.9046 21.2875 62.1009 18.0372 65.3421C17.452 64.6669 16.8217 63.9376 16.2185 63.2533C19.3067 60.1831 22.512 56.9958 25.7263 53.7725Z" fill="url(#paint4_linear_63_253)"/>
<path d="M22.6471 69.979C22.0348 69.3578 21.3596 68.6735 20.7473 68.0522C23.9616 64.838 27.1759 61.6237 30.3812 58.4184C31.0024 59.0486 31.6597 59.7329 32.2719 60.3542C29.0937 63.5324 25.8794 66.7467 22.6471 69.979Z" fill="url(#paint5_linear_63_253)"/>
<path d="M27.2568 74.5799C26.6896 74.0036 26.0233 73.3284 25.4021 72.7071C27.2568 70.8524 29.1116 68.9976 30.9483 67.1609C31.5336 67.7731 32.1818 68.4574 32.767 69.0697C31.0113 70.8254 29.1476 72.6981 27.2568 74.5799Z" fill="url(#paint6_linear_63_253)"/>
<path d="M31.9568 79.2797C31.3355 78.6674 30.6603 77.9922 30.021 77.3709C31.3535 76.0384 32.6681 74.7239 33.9826 73.4183C34.6128 74.0306 35.2971 74.6968 35.9274 75.3181C34.5948 76.6506 33.2713 77.9652 31.9568 79.2797Z" fill="url(#paint7_linear_63_253)"/>
<path d="M36.6297 83.9616C35.9995 83.2953 35.3422 82.6021 34.7209 81.9538C35.6483 81.0264 36.6117 80.0631 37.5751 79.0997C38.1963 79.7479 38.8626 80.4412 39.4749 81.0805C38.5745 81.9898 37.6201 82.9532 36.6297 83.9616Z" fill="url(#paint8_linear_63_253)"/>
<path d="M17.0018 24.0066C16.0024 25.3482 15.039 26.5997 14.1297 27.8782C13.9676 28.1033 14.0036 28.4904 13.9946 28.8055C13.9766 29.832 13.9856 30.8494 13.9856 31.9748C23.9976 31.9748 33.9466 31.9748 43.9496 31.9748C43.9496 33.0192 43.9496 33.9646 43.9496 35.009C43.5985 35.009 43.2833 35.009 42.9682 35.009C33.0372 35.009 23.1063 35.009 13.1663 35.009C11.4286 35.009 10.9874 34.5588 10.9874 32.8212C10.9874 26.4016 10.9874 19.991 10.9874 13.5715C10.9874 13.2563 10.9874 12.9412 10.9874 12.563C11.9958 12.563 12.9142 12.563 13.9406 12.563C13.9406 15.9304 13.9406 19.3067 13.9406 22.6921C14.0036 22.7191 14.0757 22.7461 14.1387 22.7731C14.6069 22.1699 15.0661 21.5576 15.5342 20.9544C16.4886 19.7119 17.524 19.7029 18.4604 20.9364C19.4328 22.2149 20.3962 23.5114 21.4226 24.88C21.9898 24.0336 22.53 23.2503 23.0523 22.458C24.0787 20.9274 25.0871 19.3788 26.1225 17.8572C26.8878 16.7407 27.9232 16.6867 28.7966 17.7221C30.5523 19.8019 32.2899 21.9088 34.0276 23.9976C34.2347 24.2407 34.4418 24.4838 34.7479 24.835C36.9088 20.9544 39.0336 17.1459 41.1855 13.2743C42.0769 13.7695 42.8872 14.2197 43.7695 14.7059C43.6255 14.994 43.5084 15.2551 43.3734 15.4982C41.1135 19.5679 38.8626 23.6375 36.6027 27.7071C35.6843 29.3638 34.6579 29.4448 33.4334 27.9682C31.6777 25.8524 29.913 23.7365 28.1483 21.6207C28.0042 21.4496 27.8332 21.2875 27.6081 21.0444C26.5457 22.6291 25.5282 24.1507 24.5108 25.6813C23.9616 26.5096 23.4214 27.347 22.8542 28.1663C22.0889 29.2557 20.9904 29.2827 20.1711 28.2293C19.1267 26.8698 18.1003 25.4832 17.0018 24.0066Z" fill="url(#paint9_linear_63_253)"/>
<path d="M77.0199 63.4874C77.0649 73.3553 69.0247 81.4496 59.1297 81.5036C49.1717 81.5576 41.0775 73.5624 41.0235 63.6315C40.9694 53.6375 49.0007 45.5342 58.9857 45.5072C68.8986 45.4712 76.9748 53.5294 77.0199 63.4874ZM74.0127 63.4874C73.9767 55.1681 67.1969 48.4424 58.9406 48.5144C50.6123 48.5864 43.9857 55.3121 44.0217 63.6405C44.0667 71.8968 50.7924 78.5414 59.0847 78.5144C67.341 78.4784 74.0487 71.7257 74.0127 63.4874Z" fill="url(#paint10_linear_63_253)"/>
<path d="M60.5072 72.581C60.5072 73.5624 60.5072 74.4898 60.5072 75.4622C59.5078 75.4622 58.5894 75.4622 57.554 75.4622C57.554 74.5078 57.554 73.5624 57.554 72.644C54.4478 71.8787 53.0162 70.4022 53.0702 68.0702C53.9886 68.0702 54.916 68.0702 55.9424 68.0702C56.1855 69.4478 57.2389 69.6098 58.4454 69.5378C59.1206 69.4928 59.7959 69.5558 60.4622 69.5198C61.3895 69.4658 61.9208 68.9256 61.9928 68.0252C62.1909 65.4142 61.8037 65 59.1747 65C58.5264 65 57.8871 65.009 57.2389 64.982C55.2581 64.8829 53.5294 63.5324 53.1873 61.5786C52.9892 60.4172 52.9892 59.1747 53.1693 58.0132C53.4664 56.1675 54.961 54.8439 56.8247 54.5918C57.401 54.5108 57.563 54.3037 57.527 53.7635C57.491 53.0702 57.518 52.3679 57.518 51.5936C58.5264 51.5936 59.4628 51.5936 60.4982 51.5936C60.4982 52.548 60.4982 53.4754 60.4982 54.4748C62.0558 54.6188 63.3793 55.1591 64.1807 56.4736C64.6218 57.1849 64.8289 58.0402 65.1981 58.9676C63.9826 58.9676 63.0552 58.9676 62.0378 58.9676C61.8397 57.7521 60.9844 57.464 59.8679 57.536C59.1657 57.581 58.4634 57.536 57.7611 57.545C57.5 57.545 57.2209 57.554 56.9778 57.635C56.0954 57.9322 55.7713 58.9946 56.0054 60.6513C56.1224 61.4886 56.6717 61.9838 57.572 62.0018C58.5084 62.0288 59.4448 61.9928 60.3811 62.0108C63.0822 62.0738 64.946 63.9286 64.982 66.6296C64.991 67.449 65.027 68.2863 64.8559 69.0786C64.4418 71.0324 62.9922 72.1759 60.5072 72.581Z" fill="url(#paint11_linear_63_253)"/>
</g>
<defs>
<linearGradient id="paint0_linear_63_253" x1="55.2984" y1="56.5882" x2="101.168" y2="18.884" gradientUnits="userSpaceOnUse">
<stop stop-color="#956AEA"/>
<stop offset="1" stop-color="#56D6E5"/>
</linearGradient>
<linearGradient id="paint1_linear_63_253" x1="8.39427" y1="46.538" x2="45.9515" y2="6.31944" gradientUnits="userSpaceOnUse">
<stop stop-color="#956AEA"/>
<stop offset="1" stop-color="#56D6E5"/>
</linearGradient>
<linearGradient id="paint2_linear_63_253" x1="7.99077" y1="92.7461" x2="50.931" y2="57.775" gradientUnits="userSpaceOnUse">
<stop stop-color="#956AEA"/>
<stop offset="1" stop-color="#56D6E5"/>
</linearGradient>
<linearGradient id="paint3_linear_63_253" x1="39.306" y1="92.5343" x2="87.2231" y2="41.5993" gradientUnits="userSpaceOnUse">
<stop stop-color="#956AEA"/>
<stop offset="1" stop-color="#56D6E5"/>
</linearGradient>
<linearGradient id="paint4_linear_63_253" x1="17.0768" y1="64.8215" x2="27.0876" y2="54.5763" gradientUnits="userSpaceOnUse">
<stop stop-color="#956AEA"/>
<stop offset="1" stop-color="#56D6E5"/>
</linearGradient>
<linearGradient id="paint5_linear_63_253" x1="21.6117" y1="69.4588" x2="31.6126" y2="59.1432" gradientUnits="userSpaceOnUse">
<stop stop-color="#956AEA"/>
<stop offset="1" stop-color="#56D6E5"/>
</linearGradient>
<linearGradient id="paint6_linear_63_253" x1="25.9545" y1="74.246" x2="32.3733" y2="67.6529" gradientUnits="userSpaceOnUse">
<stop stop-color="#956AEA"/>
<stop offset="1" stop-color="#56D6E5"/>
</linearGradient>
<linearGradient id="paint7_linear_63_253" x1="30.464" y1="79.0159" x2="35.5326" y2="73.7313" gradientUnits="userSpaceOnUse">
<stop stop-color="#956AEA"/>
<stop offset="1" stop-color="#56D6E5"/>
</linearGradient>
<linearGradient id="paint8_linear_63_253" x1="35.0775" y1="83.7428" x2="39.2852" y2="79.4859" gradientUnits="userSpaceOnUse">
<stop stop-color="#956AEA"/>
<stop offset="1" stop-color="#56D6E5"/>
</linearGradient>
<linearGradient id="paint9_linear_63_253" x1="13.4596" y1="33.999" x2="31.3024" y2="6.88784" gradientUnits="userSpaceOnUse">
<stop stop-color="#956AEA"/>
<stop offset="1" stop-color="#56D6E5"/>
</linearGradient>
<linearGradient id="paint10_linear_63_253" x1="43.723" y1="79.884" x2="74.8602" y2="47.6668" gradientUnits="userSpaceOnUse">
<stop stop-color="#956AEA"/>
<stop offset="1" stop-color="#56D6E5"/>
</linearGradient>
<linearGradient id="paint11_linear_63_253" x1="53.9485" y1="74.3881" x2="70.9932" y2="65.4021" gradientUnits="userSpaceOnUse">
<stop stop-color="#956AEA"/>
<stop offset="1" stop-color="#56D6E5"/>
</linearGradient>
<clipPath id="clip0_63_253">
<rect width="90" height="90.036" fill="white" transform="translate(5 5)"/>
</clipPath>
</defs>
</svg>
