<svg width="100" height="100" viewBox="0 0 100 100" fill="none" xmlns="http://www.w3.org/2000/svg">
<g clip-path="url(#clip0_627_349)">
<path d="M69.851 95C68.924 94.46 68.564 93.668 68.618 92.588C68.681 91.301 68.555 90.005 68.663 88.727C68.726 88.016 68.942 87.206 69.356 86.648C74.153 80.321 78.986 74.021 83.855 67.757C84.764 66.587 85.088 65.381 84.944 63.923C84.332 57.83 83.765 51.737 83.198 45.644C83.027 43.772 82.271 42.809 80.876 42.764C79.58 42.719 78.554 43.61 78.437 44.897C78.41 45.221 78.41 45.545 78.41 45.86C78.41 50.693 78.392 55.526 78.419 60.368C78.428 62.348 77.861 64.085 76.628 65.651C74.558 68.27 72.551 70.934 70.526 73.589C70.058 74.21 69.5 74.651 68.681 74.543C67.331 74.363 66.71 72.878 67.538 71.726C68.483 70.421 69.509 69.17 70.454 67.874C71.084 67.019 71.048 66.029 70.454 65.264C69.878 64.526 68.852 64.22 68.006 64.616C67.601 64.805 67.223 65.138 66.944 65.498C64.622 68.513 62.318 71.546 60.023 74.588C58.52 76.568 57.827 78.818 57.836 81.311C57.863 85.028 57.818 88.754 57.854 92.471C57.863 93.551 57.611 94.415 56.657 94.991C56.306 94.991 55.955 94.991 55.604 94.991C54.632 94.55 54.299 93.794 54.308 92.732C54.344 88.925 54.335 85.109 54.317 81.302C54.299 77.891 55.352 74.867 57.422 72.167C59.546 69.404 61.778 66.704 63.722 63.824C66.206 60.152 71.066 59.873 73.649 63.617C74.585 62.78 74.9 61.7 74.9 60.476C74.891 55.436 74.882 50.396 74.9 45.356C74.909 42.296 76.655 40.046 79.463 39.38C82.82 38.588 86.195 40.892 86.555 44.312C87.068 49.118 87.491 53.933 87.959 58.739C88.112 60.341 88.22 61.952 88.427 63.545C88.724 65.876 88.175 67.91 86.717 69.791C81.992 75.875 77.312 81.995 72.641 88.124C72.353 88.502 72.2 89.06 72.164 89.546C72.092 90.599 72.092 91.661 72.155 92.705C72.218 93.758 71.84 94.523 70.895 94.991C70.553 95 70.202 95 69.851 95Z" fill="url(#paint0_linear_627_349)"/>
<path d="M42.95 95C41.969 94.568 41.627 93.812 41.636 92.75C41.672 89.033 41.627 85.307 41.654 81.59C41.672 78.818 40.862 76.37 39.152 74.174C36.938 71.339 34.778 68.45 32.609 65.579C32.06 64.859 31.403 64.364 30.458 64.472C28.811 64.661 28.019 66.47 29.009 67.856C29.891 69.098 30.89 70.259 31.754 71.501C32.051 71.924 32.267 72.509 32.267 73.013C32.267 73.787 31.745 74.291 30.989 74.498C30.179 74.714 29.558 74.381 29.072 73.751C27.713 71.987 26.363 70.223 25.004 68.459C24.257 67.487 23.519 66.497 22.754 65.534C21.593 64.076 21.053 62.438 21.062 60.575C21.089 55.679 21.071 50.792 21.071 45.896C21.071 45.518 21.071 45.131 21.008 44.762C20.819 43.538 19.847 42.728 18.623 42.755C17.453 42.782 16.508 43.601 16.382 44.816C16.067 47.786 15.797 50.756 15.509 53.735C15.176 57.173 14.888 60.62 14.51 64.049C14.366 65.381 14.645 66.497 15.473 67.568C20.36 73.895 25.22 80.249 30.098 86.576C30.611 87.242 30.854 87.917 30.827 88.754C30.782 90.041 30.764 91.337 30.836 92.615C30.899 93.704 30.548 94.487 29.585 95C29.234 95 28.883 95 28.532 95C27.596 94.469 27.146 93.677 27.308 92.606C27.731 89.879 26.741 87.746 24.995 85.613C21.044 80.789 17.444 75.677 13.511 70.835C11.432 68.279 10.703 65.633 11.099 62.384C11.819 56.489 12.287 50.558 12.845 44.636C13.142 41.531 15.563 39.254 18.605 39.227C21.719 39.2 24.239 41.432 24.509 44.564C24.626 45.932 24.572 47.318 24.572 48.695C24.581 52.646 24.59 56.606 24.563 60.557C24.554 61.763 24.896 62.789 25.796 63.644C26.786 62.213 28.055 61.25 29.792 61.007C31.835 60.719 33.635 61.286 34.904 62.897C37.604 66.326 40.259 69.791 42.806 73.328C44.534 75.722 45.146 78.53 45.146 81.473C45.137 85.136 45.119 88.799 45.164 92.462C45.173 93.542 44.921 94.406 43.985 94.991C43.652 95 43.301 95 42.95 95Z" fill="url(#paint1_linear_627_349)"/>
<path d="M74.279 21.335C74.279 24.818 74.531 28.328 74.234 31.784C73.37 41.747 68.915 49.928 61.31 56.381C58.25 58.982 54.785 60.926 51.041 62.366C50.312 62.645 49.655 62.654 48.926 62.348C36.101 57.101 28.46 47.633 25.967 34.034C25.616 32.117 25.562 30.128 25.544 28.175C25.49 22.901 25.526 17.627 25.526 12.353C25.526 10.742 25.877 10.283 27.452 9.93201C34.76 8.29401 42.077 6.67401 49.385 5.05401C49.772 4.97301 50.204 4.97301 50.591 5.05401C57.935 6.67401 65.27 8.30301 72.614 9.94101C74.063 10.265 74.441 10.769 74.441 12.272C74.441 15.287 74.441 18.311 74.441 21.326C74.387 21.335 74.333 21.335 74.279 21.335ZM29.045 22.244C28.991 22.244 28.946 22.244 28.892 22.253C29.054 25.88 28.883 29.552 29.441 33.116C31.349 45.293 38.144 53.825 49.439 58.748C49.745 58.883 50.195 58.874 50.501 58.757C62.156 54.338 70.715 42.107 70.895 29.561C70.967 24.341 70.904 19.13 70.931 13.91C70.931 13.325 70.742 13.127 70.175 13.001C63.686 11.579 57.206 10.112 50.726 8.68101C50.258 8.58201 49.736 8.58201 49.268 8.68101C42.752 10.13 36.245 11.597 29.729 13.028C29.189 13.145 29.027 13.352 29.036 13.892C29.054 16.682 29.045 19.463 29.045 22.244Z" fill="url(#paint2_linear_627_349)"/>
<path d="M64.37 18.392C59.663 17.348 55.037 16.313 50.411 15.314C50.006 15.224 49.538 15.296 49.124 15.386C44.3 16.448 39.476 17.546 34.643 18.59C34.13 18.698 33.518 18.698 33.023 18.527C32.294 18.275 31.97 17.609 32.051 16.835C32.141 15.926 32.708 15.431 33.563 15.242C36.047 14.684 38.531 14.135 41.015 13.577C43.589 13.001 46.145 12.389 48.728 11.876C49.529 11.714 50.429 11.696 51.221 11.867C56.198 12.929 61.166 14.063 66.134 15.179C67.52 15.485 67.925 16.007 67.925 17.447C67.925 21.371 68.078 25.313 67.889 29.228C67.313 41.099 61.634 49.757 51.113 55.256C50.348 55.661 49.637 55.652 48.863 55.256C39.674 50.567 34.166 43.16 32.393 32.999C32.204 31.937 32.123 30.848 32.06 29.768C31.997 28.571 32.681 27.743 33.707 27.68C34.742 27.617 35.48 28.436 35.57 29.678C36.272 39.389 40.853 46.661 49.286 51.53C49.817 51.836 50.222 51.8 50.726 51.503C59.402 46.427 64.037 38.903 64.388 28.832C64.505 25.61 64.406 22.388 64.406 19.157C64.415 18.932 64.388 18.698 64.37 18.392Z" fill="url(#paint3_linear_627_349)"/>
<path d="M46.487 33.926C50.033 30.722 53.48 27.599 56.936 24.476C57.242 24.197 57.53 23.909 57.854 23.657C58.691 22.982 59.726 23.036 60.374 23.765C61.022 24.503 60.968 25.511 60.185 26.276C59.582 26.87 58.934 27.419 58.304 27.995C54.83 31.136 51.356 34.277 47.882 37.418C46.64 38.543 45.758 38.498 44.687 37.238C43.355 35.681 42.032 34.115 40.718 32.54C39.935 31.595 39.953 30.587 40.745 29.894C41.546 29.201 42.554 29.318 43.364 30.245C44.399 31.433 45.407 32.648 46.487 33.926Z" fill="url(#paint4_linear_627_349)"/>
<path d="M35.543 23.189C35.552 24.125 34.76 24.944 33.824 24.962C32.852 24.989 32.033 24.161 32.042 23.18C32.051 22.217 32.816 21.461 33.788 21.47C34.742 21.47 35.534 22.253 35.543 23.189Z" fill="url(#paint5_linear_627_349)"/>
</g>
<defs>
<linearGradient id="paint0_linear_627_349" x1="56.8726" y1="92.4901" x2="100.546" y2="64.7851" gradientUnits="userSpaceOnUse">
<stop stop-color="#956AEA"/>
<stop offset="1" stop-color="#56D6E5"/>
</linearGradient>
<linearGradient id="paint1_linear_627_349" x1="13.5583" y1="92.4902" x2="57.2144" y2="64.8174" gradientUnits="userSpaceOnUse">
<stop stop-color="#956AEA"/>
<stop offset="1" stop-color="#56D6E5"/>
</linearGradient>
<linearGradient id="paint2_linear_627_349" x1="29.1838" y1="59.9852" x2="78.6115" y2="16.5313" gradientUnits="userSpaceOnUse">
<stop stop-color="#956AEA"/>
<stop offset="1" stop-color="#56D6E5"/>
</linearGradient>
<linearGradient id="paint3_linear_627_349" x1="34.7347" y1="53.5849" x2="72.1494" y2="21.8228" gradientUnits="userSpaceOnUse">
<stop stop-color="#956AEA"/>
<stop offset="1" stop-color="#56D6E5"/>
</linearGradient>
<linearGradient id="paint4_linear_627_349" x1="41.6917" y1="37.5475" x2="53.9417" y2="20.1221" gradientUnits="userSpaceOnUse">
<stop stop-color="#956AEA"/>
<stop offset="1" stop-color="#56D6E5"/>
</linearGradient>
<linearGradient id="paint5_linear_627_349" x1="32.3045" y1="24.8055" x2="35.3255" y2="21.6722" gradientUnits="userSpaceOnUse">
<stop stop-color="#956AEA"/>
<stop offset="1" stop-color="#56D6E5"/>
</linearGradient>
<clipPath id="clip0_627_349">
<rect width="77.517" height="90" fill="white" transform="translate(11 5)"/>
</clipPath>
</defs>
</svg>
