<svg width="100" height="100" viewBox="0 0 100 100" fill="none" xmlns="http://www.w3.org/2000/svg">
<g clip-path="url(#clip0_119_2624)">
<path d="M38.33 45.59C37.62 45.59 36.69 45.59 35.7 45.59C35.7 44.61 35.7 43.7 35.7 42.69C36.83 42.69 37.94 42.67 39.05 42.7C39.54 42.71 39.85 42.59 40.15 42.14C42.43 38.68 45.67 36.93 49.82 36.89C51.57 36.88 53.32 36.89 55.08 36.89C60.18 36.89 62.92 38.3 65.94 42.52C66.11 42.3 66.26 42.1 66.41 41.9C68.69 38.66 71.8 36.97 75.76 36.9C77.66 36.87 79.57 36.94 81.47 36.88C84.59 36.8 87.36 37.69 89.72 39.74C92.11 37.75 92.76 33.34 91.13 30.11C90.02 27.9 88.25 26.42 85.89 25.66C83.55 24.92 81.3 25.32 79.09 26.29C76.5 17.12 70.83 12.44 61.15 14.12C55.75 15.06 50.25 20.07 49.94 28.12C49.03 28.12 48.11 28.12 47.09 28.12C47.14 23.56 48.76 19.66 51.82 16.26C49.13 12.01 45.38 9.25001 40.45 8.25001C31.11 6.35001 22.32 11.96 20.05 21.24C19.82 22.18 19.5 22.45 18.51 22.42C10.71 22.15 5.62001 30.04 9.01001 37.09C9.08001 37.23 9.14001 37.36 9.26001 37.62C8.47001 38.08 7.68001 38.54 6.81001 39.05C5.70001 37.25 5.16001 35.33 5.05001 33.3C4.68001 26.45 9.49001 20.58 16.29 19.64C17.17 19.52 17.57 19.21 17.9 18.36C20.74 10.94 26.12 6.38001 33.96 5.25001C42.02 4.08001 48.59 7.02001 53.49 13.56C53.67 13.8 53.85 14.03 54.02 14.27C63.75 7.09001 77.4 11.64 81.03 22.55C86.61 21.86 90.94 23.77 93.68 28.77C95.48 32.06 95.88 37.34 91.94 41.85C92.47 43.63 93.14 45.23 93.37 46.9C93.56 48.27 93.2 49.7 93.09 51.11C93.06 51.46 92.96 51.86 93.08 52.15C94.53 55.54 92.22 59.96 87.61 60.12C87.53 60.34 87.43 60.58 87.35 60.83C86.89 62.25 86.07 63.42 84.89 64.33C83.97 65.05 84.12 66.01 85.24 66.47C91.05 68.83 94.87 74.37 94.94 80.64C94.99 85.35 94.95 90.06 94.95 94.91C94.6 94.91 94.28 94.91 93.96 94.91C70.69 94.91 47.43 94.92 24.16 94.91C14.7 94.91 7.11001 88.61 5.31001 79.31C3.41001 69.47 10.29 59.41 20.17 57.57C29.22 55.88 37.77 60.5 41.33 69C41.41 69.19 41.5 69.38 41.63 69.67C42.03 69.34 42.36 68.99 42.76 68.75C44.07 67.96 45.39 67.16 46.74 66.45C47.68 65.96 47.87 65.02 47.05 64.39C45.63 63.3 44.76 61.86 44.31 60.13C42.33 60.04 40.68 59.33 39.52 57.73C38.36 56.14 38.09 54.39 38.68 52.49C38.83 52.01 38.77 51.45 38.74 50.93C38.63 49.2 38.48 47.47 38.33 45.59ZM70.33 91.96C70.33 88.08 70.33 84.26 70.33 80.45C71.32 80.45 72.22 80.45 73.21 80.45C73.21 84.31 73.21 88.13 73.21 91.94C77.12 91.94 80.94 91.94 84.82 91.94C84.82 88.08 84.82 84.29 84.82 80.46C85.8 80.46 86.72 80.46 87.73 80.46C87.73 84.33 87.73 88.15 87.73 91.96C89.21 91.96 90.58 91.96 92.02 91.96C92.03 91.75 92.05 91.57 92.05 91.4C92.05 87.78 92.14 84.15 92.02 80.53C91.87 75.78 89.62 72.22 85.52 69.82C85.3 69.69 85.05 69.61 84.77 69.5C84.12 72.44 82.43 74.36 79.44 74.55C75.96 74.78 73.99 72.77 73.18 69.49C72.95 69.59 72.77 69.65 72.62 69.73C68.46 72.09 66.15 75.65 65.97 80.44C65.84 83.94 65.94 87.45 65.94 90.95C65.94 91.27 65.94 91.6 65.94 91.96C67.41 91.96 68.79 91.96 70.33 91.96ZM44.22 91.98C44.22 88.08 44.22 84.26 44.22 80.45C45.22 80.45 46.11 80.45 47.1 80.45C47.1 84.31 47.1 88.13 47.1 91.94C52.47 91.94 57.74 91.94 63.04 91.94C63.04 88.31 63.05 84.74 63.03 81.18C63.02 79.13 63.35 77.15 64.09 75.25C64.17 75.04 64.31 74.73 64.22 74.58C63.34 72.99 62.16 71.66 60.58 70.58C59.7 74.54 58.84 78.35 57.95 82.35C56.19 80.01 54.55 77.83 52.87 75.59C51.15 77.87 49.53 80.03 47.79 82.34C46.89 78.32 46.03 74.49 45.13 70.47C44.34 71.21 43.71 71.81 43.06 72.39C42.56 72.84 42.46 73.36 42.55 74.02C43.04 77.57 42.45 80.98 40.82 84.12C40.03 85.64 39.7 87.11 39.8 88.77C39.86 89.84 39.81 90.91 39.81 91.99C41.34 91.98 42.7 91.98 44.22 91.98ZM64.39 48.94C65.2 45.18 61.97 40.54 57.78 40.02C55.04 39.68 52.24 39.8 49.47 39.82C45.96 39.84 42.85 42.16 41.74 45.5C41.35 46.67 41.12 47.87 41.37 48.88C42.95 48.75 44.43 48.57 45.91 48.51C48.15 48.43 50.09 47.69 51.72 46.15C52.11 45.78 52.49 45.41 52.86 45.06C52.98 45.13 53.04 45.15 53.08 45.19C53.19 45.29 53.3 45.39 53.41 45.5C55.36 47.65 57.79 48.57 60.68 48.52C61.88 48.5 63.1 48.78 64.39 48.94ZM90.5 48.94C91.3 45.17 88.08 40.54 83.88 40.02C81.14 39.68 78.34 39.8 75.57 39.82C72.06 39.84 68.95 42.16 67.84 45.5C67.45 46.67 67.22 47.87 67.47 48.88C69.06 48.75 70.53 48.57 72.01 48.51C74.25 48.43 76.19 47.69 77.82 46.15C78.21 45.78 78.59 45.41 79 45.03C79.21 45.22 79.37 45.36 79.51 45.51C81.46 47.65 83.89 48.58 86.79 48.53C87.99 48.5 89.21 48.78 90.5 48.94ZM47.11 51.58C47.11 53.98 47.02 56.54 47.14 59.1C47.23 61.21 49.1 62.9 51.22 62.99C52.33 63.04 53.45 63.04 54.57 62.99C56.7 62.9 58.56 61.23 58.65 59.11C58.77 56.56 58.68 53.99 58.68 51.41C57.92 51.23 57.18 51.1 56.47 50.86C55.73 50.61 54.93 50.38 54.34 49.91C53.31 49.09 52.56 49.21 51.45 49.88C50.16 50.65 48.63 51 47.11 51.58ZM73.21 51.34C73.21 53.96 73.14 56.5 73.23 59.02C73.31 61.17 75.18 62.89 77.34 62.98C78.42 63.02 79.51 63.02 80.6 62.98C82.74 62.91 84.63 61.29 84.75 59.17C84.89 56.59 84.78 54 84.78 51.34C82.75 51.06 80.91 50.37 79.26 49.19C79.14 49.1 78.84 49.12 78.72 49.21C77.09 50.38 75.28 51.06 73.21 51.34ZM65.97 71.72C66.12 71.54 66.26 71.39 66.39 71.24C68.1 69.09 70.22 67.5 72.77 66.46C73.88 66.01 73.95 65.12 73.13 64.3C72.31 63.48 71.62 62.52 70.96 61.57C70.67 61.15 70.57 60.59 70.39 60.11C68.61 60.08 67.18 59.38 65.96 58.12C64.72 59.41 63.25 60.08 61.48 60.12C61.04 61.82 60.2 63.26 58.81 64.33C57.88 65.05 58.04 66.02 59.14 66.47C61.01 67.23 62.68 68.29 64.11 69.71C64.73 70.34 65.32 71.02 65.97 71.72ZM29.73 74.57C29.49 72.58 29.27 70.7 29.05 68.84C25.51 68.84 22.18 68.84 18.7 68.84C18.48 70.75 18.27 72.64 18.05 74.57C22 74.57 25.76 74.57 29.73 74.57ZM18.7 83.26C22.25 83.26 25.59 83.26 29.06 83.26C29.28 81.35 29.49 79.46 29.7 77.55C25.73 77.55 21.94 77.55 18.03 77.55C18.26 79.5 18.48 81.37 18.7 83.26ZM32.04 68.8C32.24 70.78 32.43 72.66 32.62 74.54C35.02 74.54 37.36 74.54 39.73 74.54C39.6 72.65 39.08 70.92 38.3 69.28C38.2 69.06 37.88 68.82 37.65 68.82C35.8 68.78 33.97 68.8 32.04 68.8ZM7.76001 74.54C10.47 74.54 12.81 74.54 15.15 74.54C15.34 72.61 15.53 70.74 15.73 68.79C13.82 68.79 11.98 68.77 10.14 68.81C9.91001 68.81 9.56001 69.05 9.49001 69.26C8.89001 70.96 8.36001 72.68 7.76001 74.54ZM15.72 83.3C15.52 81.32 15.33 79.44 15.14 77.56C12.74 77.56 10.4 77.56 8.04001 77.56C8.16001 79.45 8.68001 81.18 9.47001 82.82C9.57001 83.04 9.89001 83.28 10.12 83.28C11.96 83.31 13.8 83.3 15.72 83.3ZM32.62 77.53C32.42 79.48 32.23 81.34 32.04 83.29C33.96 83.29 35.86 83.3 37.75 83.28C37.9 83.28 38.12 83.17 38.18 83.04C39.03 81.31 39.62 79.5 39.71 77.53C37.3 77.53 34.98 77.53 32.62 77.53ZM28.22 65.88C27.57 63.98 26.9 62.2 25.47 60.85C24.48 59.92 23.52 59.83 22.55 60.63C20.9 61.98 20.21 63.89 19.52 65.88C22.48 65.88 25.29 65.88 28.22 65.88ZM19.54 86.23C20.14 88.04 20.8 89.75 22.13 91.1C23.31 92.29 24.42 92.31 25.59 91.14C26.95 89.78 27.61 88.05 28.22 86.24C25.29 86.23 22.46 86.23 19.54 86.23ZM76.38 65.88C76.29 66.93 76.11 67.93 76.12 68.94C76.14 70.46 77.44 71.66 78.93 71.69C80.43 71.72 81.8 70.57 81.86 69.06C81.9 68.01 81.71 66.94 81.62 65.88C79.81 65.88 78.22 65.88 76.38 65.88ZM52.89 70.73C53.68 69.67 54.34 68.7 55.1 67.81C55.64 67.17 55.75 66.58 55.29 65.91C53.65 65.91 52.04 65.91 50.33 65.91C50.33 66.41 50.15 66.97 50.36 67.29C51.11 68.44 51.98 69.51 52.89 70.73ZM18.28 61.14C15.67 62.16 13.49 63.63 11.63 65.89C13.24 65.89 14.65 65.91 16.05 65.87C16.24 65.87 16.52 65.63 16.6 65.44C17.17 64.06 17.69 62.65 18.28 61.14ZM29.49 61.14C30.07 62.67 30.61 64.09 31.17 65.51C31.23 65.67 31.45 65.87 31.59 65.87C33.05 65.9 34.5 65.89 36.14 65.89C34.26 63.64 32.09 62.15 29.49 61.14ZM11.58 86.2C13.55 88.44 15.67 89.99 18.27 90.92C17.7 89.44 17.18 88.07 16.62 86.71C16.53 86.49 16.24 86.22 16.03 86.22C14.62 86.18 13.22 86.2 11.58 86.2ZM36.16 86.2C35.02 86.2 34.12 86.2 33.22 86.2C31.37 86.2 31.39 86.21 30.71 87.95C30.33 88.93 29.88 89.89 29.41 90.98C32.09 89.94 34.26 88.45 36.16 86.2ZM87.74 57.12C89.34 57.11 90.57 55.9 90.6 54.35C90.63 52.76 89.43 51.51 87.74 51.44C87.74 53.34 87.74 55.23 87.74 57.12ZM70.26 51.46C68.65 51.47 67.43 52.67 67.4 54.24C67.37 55.84 68.57 57.07 70.26 57.15C70.26 55.25 70.26 53.35 70.26 51.46ZM61.63 51.44C61.63 53.34 61.63 55.23 61.63 57.13C63.23 57.12 64.46 55.91 64.49 54.35C64.52 52.75 63.31 51.51 61.63 51.44ZM44.16 51.42C42.31 51.58 41.14 52.92 41.3 54.58C41.45 56.07 42.75 57.21 44.16 57.08C44.16 55.21 44.16 53.34 44.16 51.42ZM57.91 69.25C57.84 69.22 57.77 69.2 57.69 69.17C56.7 70.48 55.72 71.79 54.7 73.15C55.28 73.92 55.83 74.66 56.5 75.55C57 73.33 57.46 71.29 57.91 69.25ZM51.08 73.15C50.04 71.76 49.05 70.46 48.07 69.15C48 69.18 47.94 69.21 47.87 69.25C48.33 71.29 48.78 73.33 49.28 75.55C49.96 74.64 50.5 73.92 51.08 73.15ZM36.87 91.97C36.87 91.2 36.87 90.51 36.87 89.76C35.92 90.51 35.05 91.19 34.06 91.97C35.08 91.97 35.94 91.97 36.87 91.97Z" fill="url(#paint0_linear_119_2624)"/>
<path d="M14.68 40.67C14.03 39.96 13.4 39.28 12.77 38.59C18.18 32.82 28.62 32.12 35.11 38.65C34.4 39.24 33.69 39.82 32.91 40.48C30.55 38.24 27.49 36.91 23.93 36.9C20.35 36.89 17.29 38.2 14.68 40.67Z" fill="url(#paint1_linear_119_2624)"/>
<path d="M23.89 45.59C26.3 45.59 28.25 47.58 28.23 49.99C28.2 52.35 26.24 54.29 23.87 54.28C21.47 54.27 19.51 52.28 19.53 49.88C19.56 47.52 21.52 45.59 23.89 45.59ZM25.32 49.96C25.33 49.18 24.68 48.51 23.9 48.5C23.12 48.49 22.45 49.14 22.44 49.92C22.43 50.7 23.08 51.37 23.86 51.38C24.64 51.4 25.31 50.75 25.32 49.96Z" fill="url(#paint2_linear_119_2624)"/>
<path d="M36.9 10.85C36.9 11.81 36.9 12.7 36.9 13.63C31.09 14.06 27.31 17 25.58 22.66C25.14 22.57 24.68 22.49 24.22 22.39C23.78 22.3 23.35 22.19 22.91 22.09C23.81 16.18 29.89 10.66 36.9 10.85Z" fill="url(#paint3_linear_119_2624)"/>
<path d="M64.53 19.45C64.53 18.49 64.53 17.59 64.53 16.7C70.07 16.26 76.25 21.5 76.03 28.14C75.11 28.14 74.19 28.14 73.28 28.14C72.36 22.57 69.74 19.95 64.53 19.45Z" fill="url(#paint4_linear_119_2624)"/>
<path d="M18.74 44.74C18.06 44.07 17.42 43.44 16.79 42.81C20.02 38.85 27.54 38.83 30.97 42.78C30.32 43.43 29.67 44.08 29.03 44.73C25.6 41.86 21.75 42.17 18.74 44.74Z" fill="url(#paint5_linear_119_2624)"/>
</g>
<defs>
<linearGradient id="paint0_linear_119_2624" x1="11.7438" y1="90.8683" x2="89.5184" y2="10.3221" gradientUnits="userSpaceOnUse">
<stop stop-color="#956AEA"/>
<stop offset="1" stop-color="#56D6E5"/>
</linearGradient>
<linearGradient id="paint1_linear_119_2624" x1="14.4455" y1="40.3701" x2="17.5174" y2="29.7177" gradientUnits="userSpaceOnUse">
<stop stop-color="#956AEA"/>
<stop offset="1" stop-color="#56D6E5"/>
</linearGradient>
<linearGradient id="paint2_linear_119_2624" x1="20.1824" y1="53.889" x2="27.6989" y2="46.1026" gradientUnits="userSpaceOnUse">
<stop stop-color="#956AEA"/>
<stop offset="1" stop-color="#56D6E5"/>
</linearGradient>
<linearGradient id="paint3_linear_119_2624" x1="23.9593" y1="22.1283" x2="33.9777" y2="9.85398" gradientUnits="userSpaceOnUse">
<stop stop-color="#956AEA"/>
<stop offset="1" stop-color="#56D6E5"/>
</linearGradient>
<linearGradient id="paint4_linear_119_2624" x1="65.3929" y1="27.624" x2="75.3096" y2="17.3277" gradientUnits="userSpaceOnUse">
<stop stop-color="#956AEA"/>
<stop offset="1" stop-color="#56D6E5"/>
</linearGradient>
<linearGradient id="paint5_linear_119_2624" x1="17.8535" y1="44.519" x2="20.4126" y2="36.8742" gradientUnits="userSpaceOnUse">
<stop stop-color="#956AEA"/>
<stop offset="1" stop-color="#56D6E5"/>
</linearGradient>
<clipPath id="clip0_119_2624">
<rect width="90" height="89.9" fill="white" transform="translate(5 5)"/>
</clipPath>
</defs>
</svg>
