<svg width="40" height="40" viewBox="0 0 40 40" fill="none" xmlns="http://www.w3.org/2000/svg">
<circle r="19" transform="matrix(-1 0 0 1 20 20)" stroke="#ED2973" stroke-width="2"/>
<path d="M14.1666 19.1667H24.05L21.025 15.5333C20.8835 15.3631 20.8155 15.1437 20.8358 14.9234C20.8561 14.703 20.9631 14.4998 21.1333 14.3583C21.3035 14.2169 21.5229 14.1488 21.7432 14.1691C21.9636 14.1895 22.1668 14.2965 22.3083 14.4667L26.475 19.4667C26.503 19.5064 26.5281 19.5482 26.55 19.5917C26.55 19.6333 26.55 19.6583 26.6083 19.7C26.6461 19.7955 26.6658 19.8973 26.6666 20C26.6658 20.1027 26.6461 20.2044 26.6083 20.3C26.6083 20.3417 26.6083 20.3667 26.55 20.4083C26.5281 20.4518 26.503 20.4936 26.475 20.5333L22.3083 25.5333C22.2299 25.6274 22.1318 25.703 22.0209 25.7549C21.91 25.8068 21.7891 25.8335 21.6666 25.8333C21.4719 25.8337 21.2832 25.7659 21.1333 25.6417C21.0489 25.5717 20.9792 25.4858 20.928 25.3888C20.8769 25.2919 20.8454 25.1858 20.8353 25.0766C20.8253 24.9675 20.8369 24.8574 20.8694 24.7528C20.9019 24.6481 20.9548 24.5509 21.025 24.4667L24.05 20.8333H14.1666C13.9456 20.8333 13.7337 20.7455 13.5774 20.5893C13.4211 20.433 13.3333 20.221 13.3333 20C13.3333 19.779 13.4211 19.567 13.5774 19.4107C13.7337 19.2545 13.9456 19.1667 14.1666 19.1667Z" fill="#ED2973"/>
</svg>
