<svg width="24" height="24" viewBox="0 0 24 24" fill="none" xmlns="http://www.w3.org/2000/svg">
<path d="M13.9225 4.22529H13.1725V4.27374L13.1788 4.32178L13.9225 4.22529ZM13.9225 4.22528H14.6725V4.18787L14.6688 4.15065L13.9225 4.22528ZM13.9225 4.22532L14.6688 4.15069L14.6677 4.13974L14.6663 4.12883L13.9225 4.22532ZM14.1015 5.26424L14.7637 4.91218L14.7637 4.91218L14.1015 5.26424ZM15.2769 5.75111L15.0576 5.0339L15.0576 5.0339L15.2769 5.75111ZM16.1381 5.14302L16.613 5.72349L16.613 5.72349L16.1381 5.14302ZM16.6158 4.79737L16.9219 5.48205L16.6158 4.79737ZM17.5209 4.84251L17.1482 5.49334L17.1482 5.49334L17.5209 4.84251ZM17.9619 5.23397L18.5224 4.7357L18.5078 4.71923L18.4922 4.70364L17.9619 5.23397ZM17.9619 5.23398L17.4013 5.73225L17.4159 5.74873L17.4315 5.76431L17.9619 5.23398ZM18.766 6.0381L18.2357 6.56843V6.56843L18.766 6.0381ZM19.1575 6.47906L19.8083 6.10635L19.8083 6.10634L19.1575 6.47906ZM19.2026 7.38416L19.8873 7.69027V7.69027L19.2026 7.38416ZM18.8569 7.86189L18.2765 7.38696L18.8569 7.86189ZM18.2488 8.72311L18.9661 8.94242L18.9661 8.94242L18.2488 8.72311ZM18.7357 9.89849L18.3836 10.5607L18.3836 10.5607L18.7357 9.89849ZM19.7747 10.0775L19.8493 9.33119H19.8493L19.7747 10.0775ZM20.3569 10.1709L20.6246 9.47026L20.6246 9.47026L20.3569 10.1709ZM20.965 10.8428L20.2413 11.0394L20.2413 11.0394L20.965 10.8428ZM20.965 13.1571L21.6888 13.3537V13.3537L20.965 13.1571ZM20.3569 13.8292L20.0892 13.1286L20.0892 13.1286L20.3569 13.8292ZM19.7748 13.9225L19.8494 14.6688L19.7748 13.9225ZM18.7362 14.1014L18.3842 13.4391L18.3842 13.4391L18.7362 14.1014ZM18.2492 15.277L17.532 15.4965V15.4965L18.2492 15.277ZM18.8571 16.1378L18.2766 16.6128L18.2766 16.6128L18.8571 16.1378ZM19.2026 16.6153L18.5179 16.9215L18.5179 16.9215L19.2026 16.6153ZM19.1574 17.5206L18.5067 17.1478L18.5067 17.1479L19.1574 17.5206ZM17.521 19.1571L17.1482 18.5063L17.1482 18.5063L17.521 19.1571ZM16.6158 19.2022L16.3097 19.8869L16.3097 19.8869L16.6158 19.2022ZM16.1381 18.8566L15.6078 19.3869L15.6343 19.4134L15.6632 19.4371L16.1381 18.8566ZM16.1381 18.8566L16.6685 18.3263L16.642 18.2998L16.6131 18.2761L16.1381 18.8566ZM15.2769 18.2485L15.0576 18.9657L15.2769 18.2485ZM14.1015 18.7354L14.7638 19.0874L14.1015 18.7354ZM13.9226 19.7745L13.1763 19.6999V19.6999L13.9226 19.7745ZM13.8291 20.357L13.1285 20.0893L13.1285 20.0893L13.8291 20.357ZM13.1573 20.965L13.354 21.6887L13.3541 21.6887L13.1573 20.965ZM10.8428 20.965L10.6461 21.6888H10.6461L10.8428 20.965ZM10.1709 20.3569L10.8715 20.0892L10.8715 20.0892L10.1709 20.3569ZM10.0775 19.7747L10.8237 19.7001V19.7001L10.0775 19.7747ZM9.89849 18.7357L10.5607 18.3836H10.5607L9.89849 18.7357ZM8.72312 18.2488L8.50382 17.5316H8.50382L8.72312 18.2488ZM7.86188 18.857L7.38695 18.2765L7.3803 18.2819L7.37378 18.2875L7.86188 18.857ZM7.86187 18.857L8.33039 19.4426L8.34031 19.4347L8.34996 19.4264L7.86187 18.857ZM7.86186 18.857L7.39331 18.2713L7.38693 18.2765L7.86186 18.857ZM7.38411 19.2027L7.07801 18.518H7.07801L7.38411 19.2027ZM6.47903 19.1575L6.85174 18.5067L6.85174 18.5067L6.47903 19.1575ZM6.03805 18.766L6.56838 18.2357H6.56838L6.03805 18.766ZM5.23395 17.9619L4.70362 18.4922L5.23395 17.9619ZM4.84246 17.5209L4.19163 17.8937L4.19163 17.8937L4.84246 17.5209ZM4.79732 16.6159L5.48201 16.922L5.48201 16.922L4.79732 16.6159ZM5.14299 16.1381L4.57856 15.6442L4.57038 15.6536L4.56252 15.6632L5.14299 16.1381ZM5.14299 16.1381L5.70743 16.632L5.7156 16.6226L5.72346 16.613L5.14299 16.1381ZM5.75111 15.2769L6.46832 15.4962L6.46832 15.4962L5.75111 15.2769ZM5.26424 14.1015L5.61631 13.4393H5.61631L5.26424 14.1015ZM4.22529 13.9225L4.29992 13.1763H4.29992L4.22529 13.9225ZM3.64308 13.8291L3.37538 14.5297H3.37538L3.64308 13.8291ZM3.03499 13.1572L3.75875 12.9606L3.75875 12.9606L3.03499 13.1572ZM3.03501 10.8427L3.75875 11.0394H3.75875L3.03501 10.8427ZM3.64299 10.1709L3.91075 10.8715L3.91075 10.8715L3.64299 10.1709ZM4.2254 10.0775V9.32746H4.18799L4.15077 9.33118L4.2254 10.0775ZM4.2254 10.0775V10.8275H4.26281L4.30003 10.8237L4.2254 10.0775ZM5.2647 9.89841L4.91254 9.23622L5.2647 9.89841ZM5.75148 8.7232L6.46873 8.50398L6.46873 8.50398L5.75148 8.7232ZM5.14315 7.86164L4.56268 8.33656L4.56268 8.33657L5.14315 7.86164ZM4.79731 7.38364L4.11258 7.68966L4.11258 7.68966L4.79731 7.38364ZM4.84244 6.47877L4.19156 6.10613L4.19156 6.10613L4.84244 6.47877ZM5.2341 6.03758L5.76443 6.56791L5.76443 6.56791L5.2341 6.03758ZM6.03809 5.23359L5.50776 4.70326L6.03809 5.23359ZM6.03809 5.23359L5.50776 4.70326L5.50776 4.70326L6.03809 5.23359ZM6.47907 4.84209L6.85178 5.49293H6.85178L6.47907 4.84209ZM7.38415 4.79695L7.69025 4.11226L7.69025 4.11226L7.38415 4.79695ZM7.86198 5.14269L8.34213 4.5665L8.33691 4.56222L7.86198 5.14269ZM7.86199 5.14269L7.38183 5.71888L7.38706 5.72316L7.86199 5.14269ZM8.72301 5.75072L8.94243 5.03353L8.94243 5.03353L8.72301 5.75072ZM9.8986 5.26377L10.5609 5.61575L10.5609 5.61575L9.8986 5.26377ZM10.0775 4.22518L9.3312 4.15055V4.15055L10.0775 4.22518ZM10.1708 3.64316L9.4702 3.37553L9.4702 3.37554L10.1708 3.64316ZM10.8429 3.03496L10.6463 2.31119V2.31119L10.8429 3.03496ZM13.1572 3.03499L13.3539 2.31123L13.3539 2.31123L13.1572 3.03499ZM13.8291 3.64307L13.1285 3.91077L13.1285 3.91077L13.8291 3.64307ZM14.6725 4.22529V4.22528H13.1725V4.22529H14.6725ZM14.6663 4.12883L14.6663 4.12881L13.1788 4.32178L13.1788 4.32181L14.6663 4.12883ZM14.7637 4.91218C14.7783 4.93958 14.7628 4.92604 14.7399 4.7798C14.718 4.63944 14.6985 4.44784 14.6688 4.15069L13.1763 4.29994C13.2042 4.57947 13.228 4.82037 13.258 5.01182C13.287 5.1974 13.3322 5.41498 13.4393 5.61631L14.7637 4.91218ZM15.0576 5.0339C14.9431 5.0689 14.8199 5.01786 14.7637 4.91218L13.4393 5.61631C13.8326 6.35609 14.695 6.71333 15.4962 6.46833L15.0576 5.0339ZM15.6632 4.56255C15.432 4.75166 15.2828 4.87339 15.168 4.95711C15.0484 5.04433 15.0279 5.04297 15.0576 5.0339L15.4962 6.46833C15.7143 6.40165 15.9001 6.27975 16.0518 6.16906C16.2084 6.05488 16.3956 5.90137 16.613 5.72349L15.6632 4.56255ZM16.3097 4.11268C16.0738 4.21815 15.8637 4.39844 15.6632 4.56255L16.613 5.72349C16.737 5.622 16.8102 5.56237 16.8673 5.52001C16.9204 5.48055 16.9312 5.47792 16.9219 5.48205L16.3097 4.11268ZM17.8936 4.19168C17.4086 3.91389 16.82 3.88453 16.3097 4.11268L16.9219 5.48205C16.9948 5.44946 17.0789 5.45365 17.1482 5.49334L17.8936 4.19168ZM18.4922 4.70364C18.3089 4.52039 18.1179 4.3201 17.8936 4.19168L17.1482 5.49334C17.1394 5.48831 17.1498 5.49199 17.1988 5.53654C17.2513 5.58437 17.3182 5.65098 17.4315 5.7643L18.4922 4.70364ZM18.5224 4.73571L18.5224 4.7357L17.4013 5.73225L17.4013 5.73225L18.5224 4.73571ZM19.2963 5.50777L18.4922 4.70365L17.4315 5.76431L18.2357 6.56843L19.2963 5.50777ZM19.8083 6.10634C19.6799 5.8821 19.4796 5.69104 19.2963 5.50777L18.2357 6.56843C18.349 6.68175 18.4156 6.74865 18.4634 6.80121C18.508 6.85018 18.5117 6.86057 18.5066 6.85179L19.8083 6.10634ZM19.8873 7.69027C20.1154 7.17998 20.0861 6.59141 19.8083 6.10635L18.5066 6.85178C18.5463 6.92107 18.5505 7.00516 18.5179 7.07806L19.8873 7.69027ZM19.4374 8.33682C19.6015 8.13623 19.7818 7.92618 19.8873 7.69027L18.5179 7.07805C18.522 7.06882 18.5194 7.07952 18.48 7.13268C18.4376 7.18974 18.378 7.26293 18.2765 7.38696L19.4374 8.33682ZM18.9661 8.94242C18.957 8.9721 18.9556 8.95159 19.0428 8.83199C19.1266 8.71719 19.2483 8.56796 19.4374 8.33682L18.2765 7.38696C18.0986 7.60439 17.9451 7.79158 17.8309 7.94816C17.7202 8.09993 17.5983 8.28575 17.5316 8.5038L18.9661 8.94242ZM19.0878 9.23627C18.9821 9.18008 18.9311 9.05688 18.9661 8.94242L17.5316 8.50379C17.2866 9.30499 17.6439 10.1674 18.3836 10.5607L19.0878 9.23627ZM19.8493 9.33119C19.5521 9.30147 19.3605 9.28203 19.2202 9.26006C19.0739 9.23716 19.0604 9.2217 19.0878 9.23627L18.3836 10.5607C18.585 10.6678 18.8025 10.7129 18.9881 10.742C19.1796 10.772 19.4205 10.7958 19.7001 10.8237L19.8493 9.33119ZM20.6246 9.47026C20.3832 9.37802 20.1072 9.35698 19.8493 9.33119L19.7001 10.8237C19.8595 10.8397 19.9535 10.8493 20.0238 10.8597C20.0893 10.8694 20.0987 10.8751 20.0892 10.8715L20.6246 9.47026ZM21.6888 10.6461C21.5422 10.1067 21.1468 9.66978 20.6246 9.47026L20.0892 10.8715C20.1638 10.9 20.2203 10.9624 20.2413 11.0394L21.6888 10.6461ZM21.75 11.4314C21.75 11.1722 21.7565 10.8955 21.6888 10.6461L20.2413 11.0394C20.2386 11.0297 20.2433 11.0396 20.2465 11.1057C20.2498 11.1767 20.25 11.2711 20.25 11.4314H21.75ZM21.75 12.5687V11.4314H20.25V12.5687H21.75ZM21.6888 13.3537C21.7565 13.1044 21.75 12.8278 21.75 12.5687H20.25C20.25 12.7289 20.2498 12.8233 20.2465 12.8943C20.2433 12.9604 20.2386 12.9703 20.2413 12.9605L21.6888 13.3537ZM20.6245 14.5298C21.1468 14.3303 21.5423 13.8933 21.6888 13.3537L20.2413 12.9605C20.2203 13.0376 20.1638 13.1001 20.0892 13.1286L20.6245 14.5298ZM19.8494 14.6688C20.1072 14.643 20.3832 14.622 20.6245 14.5298L20.0892 13.1286C20.0987 13.1249 20.0892 13.1306 20.0238 13.1403C19.9535 13.1507 19.8596 13.1603 19.7001 13.1762L19.8494 14.6688ZM19.0881 14.7637C19.0607 14.7782 19.0743 14.7628 19.2205 14.7399C19.3608 14.7179 19.5523 14.6985 19.8494 14.6688L19.7001 13.1762C19.4207 13.2042 19.1799 13.228 18.9885 13.2579C18.803 13.287 18.5855 13.3321 18.3842 13.4391L19.0881 14.7637ZM18.9664 15.0576C18.9314 14.9431 18.9824 14.8199 19.0881 14.7637L18.3842 13.4391C17.6442 13.8324 17.2868 14.6951 17.532 15.4965L18.9664 15.0576ZM19.4375 15.6629C19.2485 15.4319 19.1268 15.2827 19.0432 15.168C18.956 15.0484 18.9573 15.0279 18.9664 15.0576L17.532 15.4965C17.5987 15.7144 17.7206 15.9001 17.8312 16.0518C17.9454 16.2083 18.0988 16.3954 18.2766 16.6128L19.4375 15.6629ZM19.8872 16.3091C19.7818 16.0733 19.6016 15.8634 19.4375 15.6629L18.2766 16.6128C18.3781 16.7367 18.4377 16.8099 18.48 16.8669C18.5194 16.9201 18.5221 16.9308 18.5179 16.9215L19.8872 16.3091ZM19.8082 17.8934C20.0861 17.4083 20.1155 16.8195 19.8872 16.3091L18.5179 16.9215C18.5506 16.9944 18.5464 17.0785 18.5067 17.1478L19.8082 17.8934ZM19.2965 18.4917C19.4796 18.3085 19.6798 18.1176 19.8082 17.8934L18.5067 17.1479C18.5117 17.1391 18.508 17.1494 18.4635 17.1984C18.4157 17.2509 18.3491 17.3178 18.2358 17.4311L19.2965 18.4917ZM19.2965 18.4917L19.2965 18.4917L18.2358 17.4311L18.2358 17.4311L19.2965 18.4917ZM18.4922 19.2959L19.2965 18.4917L18.2358 17.4311L17.4316 18.2353L18.4922 19.2959ZM17.8937 19.8079C18.1179 19.6795 18.309 19.4792 18.4922 19.2959L17.4316 18.2353C17.3182 18.3486 17.2514 18.4152 17.1988 18.4631C17.1498 18.5076 17.1394 18.5113 17.1482 18.5063L17.8937 19.8079ZM16.3097 19.8869C16.82 20.1151 17.4086 20.0857 17.8937 19.8079L17.1482 18.5063C17.0789 18.5459 16.9948 18.5501 16.9219 18.5175L16.3097 19.8869ZM15.6632 19.4371C15.8638 19.6012 16.0738 19.7815 16.3097 19.8869L16.922 18.5176C16.9312 18.5217 16.9205 18.5191 16.8673 18.4796C16.8103 18.4372 16.7371 18.3776 16.6131 18.2761L15.6632 19.4371ZM15.6078 19.3869L15.6078 19.3869L16.6685 18.3263L16.6685 18.3263L15.6078 19.3869ZM15.0576 18.9657C15.0279 18.9566 15.0484 18.9553 15.168 19.0425C15.2828 19.1262 15.4321 19.2479 15.6632 19.437L16.6131 18.2761C16.3956 18.0982 16.2085 17.9447 16.0519 17.8305C15.9001 17.7199 15.7143 17.5979 15.4963 17.5313L15.0576 18.9657ZM14.7638 19.0874C14.82 18.9817 14.9432 18.9307 15.0576 18.9657L15.4963 17.5313C14.6951 17.2863 13.8326 17.6435 13.4393 18.3833L14.7638 19.0874ZM14.6688 19.8491C14.6986 19.5519 14.718 19.3602 14.74 19.2198C14.7629 19.0736 14.7783 19.06 14.7638 19.0874L13.4393 18.3833C13.3323 18.5846 13.2871 18.8022 13.258 18.9878C13.228 19.1793 13.2042 19.4203 13.1763 19.6999L14.6688 19.8491ZM14.5297 20.6248C14.622 20.3833 14.643 20.1072 14.6688 19.8491L13.1763 19.6999C13.1603 19.8594 13.1507 19.9534 13.1403 20.0238C13.1306 20.0893 13.1249 20.0987 13.1285 20.0893L14.5297 20.6248ZM13.3541 21.6887C13.8933 21.5421 14.3302 21.1468 14.5297 20.6248L13.1285 20.0893C13.1 20.1638 13.0376 20.2203 12.9606 20.2412L13.3541 21.6887ZM12.5685 21.75C12.8277 21.75 13.1046 21.7565 13.354 21.6887L12.9606 20.2412C12.9704 20.2386 12.9604 20.2433 12.8943 20.2465C12.8232 20.2498 12.7288 20.25 12.5685 20.25V21.75ZM11.4314 21.75H12.5685V20.25H11.4314V21.75ZM10.6461 21.6888C10.8955 21.7565 11.1722 21.75 11.4314 21.75V20.25C11.2711 20.25 11.1767 20.2498 11.1057 20.2465C11.0396 20.2433 11.0297 20.2386 11.0394 20.2413L10.6461 21.6888ZM9.47026 20.6246C9.66978 21.1468 10.1067 21.5422 10.6461 21.6888L11.0394 20.2413C10.9624 20.2203 10.9 20.1638 10.8715 20.0892L9.47026 20.6246ZM9.33119 19.8493C9.35698 20.1072 9.37802 20.3832 9.47026 20.6246L10.8715 20.0892C10.8751 20.0987 10.8694 20.0893 10.8597 20.0238C10.8493 19.9535 10.8397 19.8595 10.8237 19.7001L9.33119 19.8493ZM9.23627 19.0878C9.2217 19.0604 9.23716 19.0739 9.26006 19.2202C9.28203 19.3605 9.30147 19.5521 9.33119 19.8493L10.8237 19.7001C10.7958 19.4205 10.772 19.1796 10.742 18.9881C10.7129 18.8025 10.6678 18.5849 10.5607 18.3836L9.23627 19.0878ZM8.94243 18.9661C9.05688 18.9311 9.18008 18.9821 9.23627 19.0878L10.5607 18.3836C10.1674 17.6439 9.305 17.2866 8.50382 17.5316L8.94243 18.9661ZM8.3368 19.4374C8.56795 19.2483 8.71719 19.1266 8.83199 19.0428C8.9516 18.9556 8.97211 18.957 8.94243 18.9661L8.50382 17.5316C8.28576 17.5983 8.09994 17.7202 7.94816 17.8309C7.79158 17.9451 7.60438 18.0986 7.38695 18.2765L8.3368 19.4374ZM8.34996 19.4264L8.34997 19.4264L7.37378 18.2875L7.37377 18.2875L8.34996 19.4264ZM8.33038 19.4426L8.33039 19.4426L7.39335 18.2713L7.39334 18.2713L8.33038 19.4426ZM7.69021 19.8873C7.92613 19.7819 8.13618 19.6016 8.33679 19.4374L7.38693 18.2765C7.26289 18.378 7.1897 18.4376 7.13264 18.48C7.07948 18.5195 7.06877 18.5221 7.07801 18.518L7.69021 19.8873ZM6.10632 19.8083C6.59137 20.0861 7.17993 20.1155 7.69021 19.8873L7.07801 18.518C7.00511 18.5505 6.92104 18.5464 6.85174 18.5067L6.10632 19.8083ZM5.50772 19.2963C5.69099 19.4796 5.88207 19.6799 6.10633 19.8083L6.85174 18.5067C6.86053 18.5117 6.85014 18.508 6.80117 18.4635C6.7486 18.4156 6.68171 18.349 6.56838 18.2357L5.50772 19.2963ZM4.70362 18.4922L5.50772 19.2963L6.56838 18.2357L5.76428 17.4316L4.70362 18.4922ZM4.19163 17.8937C4.32005 18.1179 4.52035 18.309 4.70362 18.4922L5.76428 17.4316C5.65096 17.3183 5.58434 17.2514 5.53651 17.1988C5.49195 17.1498 5.48827 17.1394 5.4933 17.1482L4.19163 17.8937ZM4.11263 16.3097C3.8845 16.82 3.91385 17.4086 4.19163 17.8937L5.4933 17.1482C5.45361 17.0789 5.44942 16.9949 5.48201 16.922L4.11263 16.3097ZM4.56252 15.6632C4.3984 15.8638 4.2181 16.0738 4.11263 16.3097L5.48201 16.922C5.47788 16.9312 5.48051 16.9205 5.51997 16.8673C5.56234 16.8103 5.62197 16.7371 5.72346 16.613L4.56252 15.6632ZM4.57856 15.6442L4.57856 15.6442L5.70742 16.632L5.70743 16.632L4.57856 15.6442ZM5.03389 15.0576C5.04297 15.0279 5.04432 15.0484 4.9571 15.168C4.87338 15.2828 4.75164 15.432 4.56253 15.6632L5.72346 16.613C5.90136 16.3956 6.05487 16.2084 6.16906 16.0518C6.27974 15.9001 6.40165 15.7143 6.46832 15.4962L5.03389 15.0576ZM4.91217 14.7637C5.01786 14.8199 5.06889 14.9431 5.03389 15.0576L6.46832 15.4962C6.71332 14.695 6.35608 13.8326 5.61631 13.4393L4.91217 14.7637ZM4.15066 14.6688C4.44782 14.6985 4.63942 14.718 4.77979 14.7399C4.92603 14.7628 4.93958 14.7783 4.91217 14.7637L5.61631 13.4393C5.41498 13.3322 5.19739 13.287 5.01181 13.258C4.82036 13.228 4.57945 13.2042 4.29992 13.1763L4.15066 14.6688ZM3.37538 14.5297C3.61677 14.622 3.89278 14.643 4.15066 14.6688L4.29992 13.1763C4.14045 13.1603 4.04653 13.1507 3.97623 13.1403C3.91074 13.1306 3.90131 13.1249 3.91077 13.1285L3.37538 14.5297ZM2.31123 13.3539C2.45779 13.8933 2.85323 14.3302 3.37538 14.5297L3.91077 13.1285C3.83618 13.1 3.77968 13.0376 3.75875 12.9606L2.31123 13.3539ZM2.25 12.5686C2.25 12.8278 2.24347 13.1045 2.31123 13.3539L3.75875 12.9606C3.7614 12.9703 3.75666 12.9604 3.75354 12.8943C3.75019 12.8233 3.75 12.7289 3.75 12.5686H2.25ZM2.25 11.4315V12.5686H3.75V11.4315H2.25ZM2.31127 10.646C2.24347 10.8954 2.25 11.1723 2.25 11.4315H3.75C3.75 11.2712 3.75019 11.1768 3.75354 11.1057C3.75666 11.0396 3.76141 11.0296 3.75875 11.0394L2.31127 10.646ZM3.37524 9.47031C2.8532 9.66983 2.45785 10.1067 2.31127 10.646L3.75875 11.0394C3.77969 10.9624 3.83617 10.9 3.91075 10.8715L3.37524 9.47031ZM4.15077 9.33118C3.8928 9.35698 3.61669 9.37803 3.37524 9.47031L3.91075 10.8715C3.90129 10.8751 3.91072 10.8694 3.97623 10.8597C4.04656 10.8493 4.14051 10.8397 4.30003 10.8237L4.15077 9.33118ZM4.2254 9.32746H4.2254V10.8275H4.2254V9.32746ZM4.91254 9.23622C4.93995 9.22165 4.92641 9.23712 4.78012 9.26002C4.6397 9.28201 4.44803 9.30146 4.15078 9.33118L4.30003 10.8237C4.57966 10.7958 4.82065 10.772 5.01216 10.742C5.19781 10.7129 5.41547 10.6677 5.61685 10.5606L4.91254 9.23622ZM5.03424 8.94242C5.06922 9.05686 5.01819 9.18004 4.91254 9.23622L5.61685 10.5606C6.35642 10.1673 6.71357 9.30504 6.46873 8.50398L5.03424 8.94242ZM4.56268 8.33657C4.75187 8.5678 4.87367 8.7171 4.95742 8.83194C5.04468 8.9516 5.04331 8.97212 5.03424 8.94242L6.46873 8.50398C6.40206 8.28584 6.28011 8.09996 6.16939 7.94813C6.05516 7.79149 5.90159 7.60423 5.72362 7.38671L4.56268 8.33657ZM4.11258 7.68966C4.21807 7.92569 4.39847 8.13586 4.56268 8.33656L5.72362 7.38671C5.62207 7.2626 5.56241 7.18937 5.52002 7.13227C5.48053 7.07908 5.4779 7.06837 5.48204 7.07762L4.11258 7.68966ZM4.19156 6.10613C3.91392 6.59109 3.88457 7.17948 4.11258 7.68966L5.48204 7.07762C5.44947 7.00474 5.45366 6.92068 5.49332 6.8514L4.19156 6.10613ZM4.70377 5.50725C4.52041 5.6906 4.32001 5.88177 4.19156 6.10613L5.49332 6.8514C5.48829 6.86019 5.49197 6.84979 5.53655 6.8008C5.5844 6.74821 5.65105 6.68129 5.76443 6.56791L4.70377 5.50725ZM5.50776 4.70326L4.70377 5.50725L5.76443 6.56791L6.56842 5.76392L5.50776 4.70326ZM5.50776 4.70326L5.50776 4.70326L6.56842 5.76392L6.56842 5.76392L5.50776 4.70326ZM6.10637 4.19125C5.88211 4.31968 5.69103 4.51999 5.50776 4.70326L6.56842 5.76392C6.68175 5.65059 6.74864 5.58397 6.80121 5.53614C6.85018 5.49158 6.86057 5.4879 6.85178 5.49293L6.10637 4.19125ZM7.69025 4.11226C7.17997 3.88413 6.59141 3.91349 6.10637 4.19125L6.85178 5.49293C6.92108 5.45325 7.00516 5.44905 7.07805 5.48164L7.69025 4.11226ZM8.33691 4.56222C8.13627 4.39806 7.92617 4.21773 7.69025 4.11226L7.07805 5.48164C7.0688 5.47751 7.07951 5.48014 7.13269 5.51962C7.18977 5.56199 7.26298 5.62164 7.38705 5.72315L8.33691 4.56222ZM8.34212 4.56653L8.34211 4.56652L7.38184 5.71885L7.38185 5.71886L8.34212 4.56653ZM8.94243 5.03353C8.97211 5.04261 8.9516 5.04397 8.83201 4.95675C8.71723 4.87303 8.56801 4.7513 8.33691 4.56222L7.38706 5.72316C7.60445 5.90103 7.7916 6.05451 7.94814 6.16867C8.09987 6.27933 8.28563 6.40122 8.5036 6.46791L8.94243 5.03353ZM9.23633 4.9118C9.18014 5.01751 9.0569 5.06856 8.94243 5.03353L8.5036 6.46791C9.30494 6.71307 10.1676 6.35574 10.5609 5.61575L9.23633 4.9118ZM9.3312 4.15055C9.3015 4.4476 9.28207 4.63914 9.2601 4.77946C9.23722 4.92565 9.22176 4.93919 9.23632 4.9118L10.5609 5.61575C10.6678 5.41448 10.713 5.19697 10.7421 5.01145C10.772 4.82006 10.7958 4.57923 10.8238 4.2998L9.3312 4.15055ZM9.4702 3.37554C9.37802 3.61684 9.35698 3.89275 9.3312 4.15055L10.8238 4.2998C10.8397 4.14039 10.8493 4.04651 10.8597 3.97623C10.8694 3.91076 10.8751 3.90134 10.8714 3.91079L9.4702 3.37554ZM10.6463 2.31119C10.1067 2.45773 9.6697 2.85325 9.4702 3.37553L10.8714 3.91079C10.8999 3.83618 10.9624 3.77968 11.0395 3.75874L10.6463 2.31119ZM11.4313 2.25C11.1722 2.25 10.8956 2.24348 10.6463 2.31119L11.0395 3.75874C11.0297 3.76139 11.0396 3.75665 11.1057 3.75354C11.1767 3.75019 11.2711 3.75 11.4313 3.75V2.25ZM12.5686 2.25H11.4313V3.75H12.5686V2.25ZM13.3539 2.31123C13.1045 2.24347 12.8278 2.25 12.5686 2.25V3.75C12.7289 3.75 12.8233 3.75019 12.8943 3.75354C12.9604 3.75666 12.9703 3.7614 12.9606 3.75875L13.3539 2.31123ZM14.5297 3.37538C14.3302 2.85323 13.8933 2.45779 13.3539 2.31123L12.9606 3.75875C13.0376 3.77968 13.1 3.83617 13.1285 3.91077L14.5297 3.37538ZM14.6688 4.15065C14.643 3.89277 14.622 3.61676 14.5297 3.37538L13.1285 3.91077C13.1249 3.90131 13.1306 3.91074 13.1403 3.97623C13.1507 4.04653 13.1603 4.14045 13.1763 4.29991L14.6688 4.15065ZM14.85 12C14.85 13.574 13.574 14.85 12 14.85V16.35C14.4024 16.35 16.35 14.4024 16.35 12H14.85ZM12 9.15C13.574 9.15 14.85 10.426 14.85 12H16.35C16.35 9.59756 14.4024 7.65 12 7.65V9.15ZM9.15 12C9.15 10.426 10.426 9.15 12 9.15V7.65C9.59756 7.65 7.65 9.59756 7.65 12H9.15ZM12 14.85C10.426 14.85 9.15 13.574 9.15 12H7.65C7.65 14.4024 9.59756 16.35 12 16.35V14.85Z" fill="#6A6A6A"/>
</svg>
