<svg width="100" height="100" viewBox="0 0 100 100" fill="none" xmlns="http://www.w3.org/2000/svg">
<g clip-path="url(#clip0_63_311)">
<path d="M27.49 34.99C27.49 34.53 27.49 34.17 27.49 33.8C27.49 26.21 27.47 18.62 27.5 11.03C27.52 6.48997 32.2 3.60997 36.2 5.66997C38.4 6.79997 39.4799 8.68997 39.4799 11.15C39.49 18.68 39.49 26.2 39.49 33.73C39.49 34.1 39.49 34.48 39.49 34.99C39.86 34.99 40.1799 34.99 40.5099 34.99C42.1999 34.99 43.8799 34.97 45.57 35C49.68 35.07 52.93 38.3 52.97 42.42C53.01 46.92 52.9799 51.41 52.9799 55.91C52.9799 56.25 52.9799 56.59 53.1199 56.98C53.2599 56.73 53.41 56.49 53.54 56.23C55.99 51.14 58.43 46.06 60.88 40.97C62.26 38.1 64.66 37.28 67.56 38.66C76.22 42.82 84.8799 46.98 93.5399 51.13C95.0799 51.87 95.2899 52.46 94.5399 54.02C88.4399 66.69 82.34 79.37 76.2399 92.04C75.4999 93.58 74.93 93.77 73.3499 93.02C66.8299 89.88 60.31 86.74 53.79 83.61C53.49 83.46 53.18 83.33 52.81 83.17C52.08 85.7 50.56 87.49 48.09 88.51C48.88 90.82 48.4799 92.81 46.4199 94.21C44.8599 95.27 43.16 95.27 41.57 94.23C39.6999 93.01 39.1799 91.21 39.6699 89.02C35.5299 89.02 31.43 89.02 27.29 89.02C27.8 91.31 27.2 93.15 25.18 94.37C23.6 95.32 21.59 95.15 20.18 93.96C18.48 92.52 18.11 90.71 18.87 88.57C18.66 88.45 18.46 88.33 18.25 88.22C15.48 86.78 14 84.49 14 81.37C13.98 68.47 13.99 55.57 14 42.68C14 38.24 17.2599 35.02 21.7099 35C23.5999 34.98 25.5 34.99 27.49 34.99ZM27.49 38.05C27.2699 38.02 27.18 38 27.09 38C25.22 38 23.3399 37.97 21.4699 38C18.9599 38.04 17.01 39.96 17 42.47C16.98 55.49 16.98 68.51 17 81.52C17 83.98 18.96 85.88 21.42 85.95C22.32 85.97 23.2299 85.96 24.1399 85.96C31.1999 85.96 38.25 85.97 45.31 85.96C47.55 85.96 49.28 84.62 49.83 82.6C49.99 82.02 49.9199 81.68 49.32 81.45C48.63 81.18 47.9599 80.82 47.29 80.49C44.53 79.14 43.6799 76.72 45.0099 73.95C46.5599 70.72 48.1199 67.49 49.66 64.25C49.82 63.92 49.9599 63.55 49.9599 63.19C49.9799 56.26 49.9899 49.33 49.9599 42.4C49.95 40.2 48.3499 38.27 46.1699 38.08C43.9799 37.9 41.7599 38.04 39.4599 38.04C39.4599 40.54 39.4599 42.99 39.4599 45.41C38.41 45.41 37.46 45.41 36.45 45.41C36.45 42.91 36.45 40.49 36.45 38.05C34.43 38.05 32.49 38.05 30.44 38.05C30.44 40.56 30.44 43.01 30.44 45.43C29.41 45.43 28.49 45.43 27.5 45.43C27.49 42.96 27.49 40.53 27.49 38.05ZM61.8699 45.89C61.8499 45.92 61.7999 45.99 61.7599 46.08C57.07 55.83 52.3799 65.57 47.6899 75.32C47.0999 76.55 47.3699 77.2 48.7 77.84C56.79 81.73 64.88 85.62 72.98 89.51C73.28 89.65 73.59 89.77 73.94 89.92C78.93 79.55 83.88 69.25 88.8699 58.89C79.84 54.54 70.8899 50.23 61.8699 45.89ZM36.49 34.95C36.49 33.6 36.49 32.33 36.49 31.05C36.49 24.46 36.49 17.88 36.49 11.29C36.49 9.79997 35.8 8.69997 34.61 8.22997C32.56 7.40997 30.5 8.89997 30.5 11.25C30.49 18.96 30.5 26.67 30.5 34.38C30.5 34.56 30.52 34.74 30.53 34.96C32.51 34.95 34.43 34.95 36.49 34.95ZM91.4499 53.5C91.1099 53.33 90.8699 53.2 90.6199 53.08C85.0099 50.37 79.3899 47.67 73.7699 44.97C71.2099 43.74 68.66 42.51 66.0999 41.29C65.0299 40.78 64.19 41 63.79 41.86C63.3899 42.72 63.7699 43.47 64.8499 44C64.91 44.03 64.9599 44.05 65.02 44.08C70.95 46.93 76.8699 49.78 82.7999 52.63C85.24 53.8 87.6799 54.97 90.16 56.17C90.6 55.27 90.9999 54.43 91.4499 53.5ZM23 88.97C22.2 88.96 21.51 89.62 21.49 90.42C21.47 91.22 22.12 91.92 22.92 91.95C23.76 91.99 24.4799 91.29 24.4799 90.45C24.4799 89.65 23.81 88.98 23 88.97ZM44 91.95C44.8099 91.93 45.47 91.26 45.47 90.45C45.47 89.61 44.74 88.92 43.91 88.96C43.11 89 42.46 89.7 42.49 90.5C42.52 91.31 43.2 91.97 44 91.95Z" fill="url(#paint0_linear_63_311)"/>
<path d="M77.6299 13.64C79.8499 15.12 81.9399 16.53 84.0599 17.9C84.2699 18.03 84.7199 18 84.9499 17.86C85.9399 17.26 86.8799 16.59 87.8399 15.96C88.8399 15.3 89.4099 15.35 90.2499 16.17C91.1399 17.04 92.0299 17.92 92.8999 18.82C93.6799 19.64 93.6899 20.39 92.8899 21.2C91.0099 23.11 89.1199 25.02 87.1899 26.89C85.6199 28.42 83.5499 28.67 81.6799 27.54C73.4099 22.52 65.1699 17.47 56.9199 12.42C55.7799 11.72 55.6799 10.75 56.5899 9.78998C56.8899 9.46998 57.1999 9.16998 57.5199 8.85998C60.1699 6.27998 63.6799 5.84998 66.8899 7.69998C67.7999 8.22998 68.7099 9.08998 69.6499 9.12998C70.5499 9.15998 71.4899 8.32998 72.4099 7.86998C74.1099 7.01998 75.8299 6.19998 77.5099 5.31998C78.3899 4.85998 79.0899 5.00998 79.7799 5.68998C81.9599 7.81998 81.9799 7.83998 80.1499 10.28C79.3299 11.37 78.5099 12.46 77.6299 13.64ZM89.7799 20.05C88.8499 18.89 88.8499 18.89 87.7699 19.6C87.0199 20.1 86.2499 20.59 85.5099 21.1C84.8099 21.59 84.1499 21.59 83.4299 21.11C80.5799 19.2 77.7199 17.31 74.8699 15.39C73.8099 14.68 73.6899 13.89 74.4299 12.86C74.7399 12.43 75.0599 12.01 75.3799 11.59C76.0499 10.69 76.7299 9.78998 77.3999 8.88998C75.0099 9.88998 72.7399 10.99 70.4999 12.15C69.7199 12.56 69.0399 12.53 68.3099 12.06C67.2299 11.38 66.1399 10.7 65.0199 10.09C63.2699 9.12998 61.1099 9.43998 59.9899 10.77C62.1799 12.1 64.3599 13.44 66.5399 14.77C71.9699 18.08 77.3999 21.39 82.8099 24.72C83.6099 25.21 84.3599 25.43 85.0999 24.7C86.6599 23.19 88.1999 21.63 89.7799 20.05Z" fill="url(#paint1_linear_63_311)"/>
<path d="M89.7499 36.3499C88.9999 34.5499 88.3199 32.8899 87.5999 31.1399C88.4399 30.7099 89.2899 30.2899 90.1299 29.8599C92.3899 33.3499 94.9599 42.7699 94.7499 46.8799C93.8299 46.9399 92.8899 46.9899 91.9799 47.0499C91.6499 45.0099 91.3799 43.0699 91.0299 41.1399C90.7199 39.4699 90.6899 39.4899 89.0199 39.3299C82.0999 38.6499 76.1199 35.8999 71.0499 31.1499C69.9599 30.1299 68.9199 29.0399 67.8499 27.9899C66.9499 27.1099 66.1899 27.0899 65.2099 27.8899C62.9799 29.7099 60.5499 29.6099 58.4899 27.6199C55.2399 24.4899 51.0099 24.4099 47.6699 27.4499C46.2299 28.7599 44.5899 29.5399 42.5599 29.5599C42.5599 28.5699 42.5599 27.6199 42.5599 26.5999C43.8999 26.5399 44.9399 25.8899 45.9199 24.9999C50.0499 21.2799 56.0099 21.3099 60.1299 25.0399C60.3399 25.2299 60.5299 25.4299 60.7399 25.6199C61.5499 26.3499 62.3099 26.3599 63.1699 25.6799C65.6299 23.7199 67.9599 23.8299 70.1599 26.0599C72.8599 28.8099 75.5999 31.4799 79.0599 33.2799C82.0199 34.8199 85.1499 35.8199 88.4599 36.2699C88.8099 36.3199 89.1799 36.3199 89.7499 36.3499Z" fill="url(#paint2_linear_63_311)"/>
<path d="M23.6499 13.6C24.2299 14.41 24.7699 15.16 25.3399 15.96C17.1499 22.08 11.6799 29.99 9.23994 39.88C6.79994 49.76 7.88995 59.3 12.3099 68.59C11.4599 69.02 10.6199 69.45 9.76995 69.87C0.769945 53.4 4.01995 27.49 23.6499 13.6Z" fill="url(#paint3_linear_63_311)"/>
<path d="M63.0999 90.16C63.3399 90.9 63.6199 91.78 63.9199 92.74C59.8599 94.07 55.7899 94.78 51.5399 94.92C51.5399 93.91 51.5399 92.99 51.5399 92.2C55.3499 91.53 59.1599 90.85 63.0999 90.16Z" fill="url(#paint4_linear_63_311)"/>
<path d="M54.6299 5.26995C54.5199 6.28995 54.4199 7.20995 54.3399 7.96995C50.4399 8.09995 46.6299 8.23995 42.6999 8.36995C42.5699 7.61995 42.4099 6.68995 42.2299 5.68995C46.3899 4.97995 50.4299 4.80995 54.6299 5.26995Z" fill="url(#paint5_linear_63_311)"/>
<path d="M25.9299 82.92C24.9399 82.92 24.0099 82.92 23.0399 82.92C23.0399 71.46 23.0399 60.05 23.0399 48.56C23.9699 48.56 24.9199 48.56 25.9299 48.56C25.9299 59.97 25.9299 71.41 25.9299 82.92Z" fill="url(#paint6_linear_63_311)"/>
<path d="M34.9199 82.92C33.9399 82.92 33.0099 82.92 32.0399 82.92C32.0399 71.44 32.0399 60.01 32.0399 48.53C32.9999 48.53 33.9299 48.53 34.9199 48.53C34.9199 59.97 34.9199 71.4 34.9199 82.92Z" fill="url(#paint7_linear_63_311)"/>
<path d="M41.0499 48.53C42.0399 48.53 42.9599 48.53 43.9299 48.53C43.9299 60.01 43.9299 71.44 43.9299 82.92C42.9599 82.92 42.0399 82.92 41.0499 82.92C41.0499 71.48 41.0499 60.04 41.0499 48.53Z" fill="url(#paint8_linear_63_311)"/>
<path d="M79.9799 64.5399C79.9899 70.3299 75.3099 75.0299 69.5099 75.0499C63.7599 75.07 58.9999 70.3199 58.9999 64.5499C58.9999 58.7699 63.6899 54.0799 69.4899 54.0699C75.2999 54.0699 79.9699 58.7299 79.9799 64.5399ZM69.1399 72.0399C71.7299 72.0399 73.7799 71.1199 75.4799 69.0799C74.5099 68.6199 73.6599 68.2099 72.9399 67.8699C71.6399 69.2999 70.4299 70.6299 69.1399 72.0399ZM63.8199 69.4399C64.1399 67.7399 64.4699 66.0999 64.7499 64.4599C64.7799 64.2599 64.6299 63.9199 64.4699 63.8199C63.7699 63.4299 63.0299 63.0999 62.2399 62.7299C61.6399 65.3199 62.2499 67.5099 63.8199 69.4399ZM75.0899 59.7399C74.8199 61.4999 74.5399 63.2899 74.2599 65.1599C75.0099 65.5199 75.8399 65.9199 76.6799 66.3199C77.4599 64.2099 76.6299 60.9399 75.0899 59.7399ZM69.7599 57.1499C67.5599 56.8499 64.6999 58.1799 63.6499 60.0599C64.4899 60.4599 65.3199 60.8599 66.0499 61.2199C67.3299 59.8199 68.5399 58.4999 69.7599 57.1499ZM70.1799 66.5399C69.2099 66.0699 68.4599 65.7099 67.5199 65.2599C67.3199 66.7199 67.1399 68.0599 66.9599 69.3999C67.0799 69.4499 67.1999 69.4899 67.3199 69.5399C68.2299 68.5899 69.1399 67.6299 70.1799 66.5399ZM72.0299 59.7099C71.9099 59.6599 71.7999 59.5999 71.6799 59.5499C70.7699 60.5199 69.8499 61.4899 68.8399 62.5599C69.7899 63.0099 70.5299 63.3699 71.4899 63.8199C71.6799 62.3399 71.8599 61.0199 72.0299 59.7099Z" fill="url(#paint9_linear_63_311)"/>
<path d="M54.91 77.48C55.38 76.52 55.78 75.69 56.22 74.79C60.75 76.97 65.2 79.1 69.71 81.27C69.26 82.19 68.85 83.05 68.41 83.97C63.89 81.8 59.44 79.66 54.91 77.48Z" fill="url(#paint10_linear_63_311)"/>
</g>
<defs>
<linearGradient id="paint0_linear_63_311" x1="20.0612" y1="90.9568" x2="97.7692" y2="18.632" gradientUnits="userSpaceOnUse">
<stop stop-color="#956AEA"/>
<stop offset="1" stop-color="#56D6E5"/>
</linearGradient>
<linearGradient id="paint1_linear_63_311" x1="58.791" y1="27.1976" x2="76.4611" y2="-2.3806" gradientUnits="userSpaceOnUse">
<stop stop-color="#956AEA"/>
<stop offset="1" stop-color="#56D6E5"/>
</linearGradient>
<linearGradient id="paint2_linear_63_311" x1="46.4751" y1="45.9329" x2="62.7799" y2="10.4563" gradientUnits="userSpaceOnUse">
<stop stop-color="#956AEA"/>
<stop offset="1" stop-color="#56D6E5"/>
</linearGradient>
<linearGradient id="paint3_linear_63_311" x1="6.52414" y1="67.3378" x2="38.4851" y2="55.3834" gradientUnits="userSpaceOnUse">
<stop stop-color="#956AEA"/>
<stop offset="1" stop-color="#56D6E5"/>
</linearGradient>
<linearGradient id="paint4_linear_63_311" x1="52.4684" y1="94.7058" x2="55.1588" y2="87.4659" gradientUnits="userSpaceOnUse">
<stop stop-color="#956AEA"/>
<stop offset="1" stop-color="#56D6E5"/>
</linearGradient>
<linearGradient id="paint5_linear_63_311" x1="43.1599" y1="8.21891" x2="44.5825" y2="2.78102" gradientUnits="userSpaceOnUse">
<stop stop-color="#956AEA"/>
<stop offset="1" stop-color="#56D6E5"/>
</linearGradient>
<linearGradient id="paint6_linear_63_311" x1="23.2567" y1="81.3738" x2="28.3939" y2="80.9267" gradientUnits="userSpaceOnUse">
<stop stop-color="#956AEA"/>
<stop offset="1" stop-color="#56D6E5"/>
</linearGradient>
<linearGradient id="paint7_linear_63_311" x1="32.2559" y1="81.3724" x2="37.3757" y2="80.9288" gradientUnits="userSpaceOnUse">
<stop stop-color="#956AEA"/>
<stop offset="1" stop-color="#56D6E5"/>
</linearGradient>
<linearGradient id="paint8_linear_63_311" x1="41.2659" y1="81.3724" x2="46.3857" y2="80.9288" gradientUnits="userSpaceOnUse">
<stop stop-color="#956AEA"/>
<stop offset="1" stop-color="#56D6E5"/>
</linearGradient>
<linearGradient id="paint9_linear_63_311" x1="60.5734" y1="74.1059" x2="78.7212" y2="55.3288" gradientUnits="userSpaceOnUse">
<stop stop-color="#956AEA"/>
<stop offset="1" stop-color="#56D6E5"/>
</linearGradient>
<linearGradient id="paint10_linear_63_311" x1="56.02" y1="83.5569" x2="63.0277" y2="71.8672" gradientUnits="userSpaceOnUse">
<stop stop-color="#956AEA"/>
<stop offset="1" stop-color="#56D6E5"/>
</linearGradient>
<clipPath id="clip0_63_311">
<rect width="89.95" height="90" fill="white" transform="translate(5 5)"/>
</clipPath>
</defs>
</svg>
